<?xml version="1.0" encoding="utf-8"?>
<!-- Svg Vector Icons : http://www.sfont.cn -->
<!DOCTYPE svg PUBLIC "-//W3C//DTD SVG 1.1//EN" "http://www.w3.org/Graphics/SVG/1.1/DTD/svg11.dtd">
<svg version="1.1" xmlns="http://www.w3.org/2000/svg" xmlns:xlink="http://www.w3.org/1999/xlink" x="0px" y="0px" viewBox="0 0 1000 1000" enable-background="new 0 0 1000 1000" xml:space="preserve">
<metadata> Svg Vector Icons : http://www.sfont.cn </metadata>
<g><g transform="translate(0.000000,511.000000) scale(0.100000,-0.100000)"><path d="M4126.6,4984.3c-302.7-55.2-904.1-229.1-953.2-276.1c-10.2-8.2-6.1-128.9,8.2-270c16.4-184.1,16.4-267.9,0-296.6c-30.7-61.4-687.3-435.7-760.9-435.7c-38.9,0-124.8,47-261.8,143.2c-110.4,79.8-210.7,143.2-220.9,143.2c-69.5,0-824.3-756.8-824.3-826.4c0-8.2,65.5-106.4,143.2-216.8c100.2-141.1,143.2-220.9,143.2-261.8c0-73.6-374.3-730.2-433.6-763c-28.6-16.4-116.6-14.3-296.6,2c-212.7,20.5-259.8,20.5-274.1-2c-36.8-59.3-180-529.8-229.1-754.8c-88-407-110.5-345.7,161.6-470.5c128.9-59.3,249.5-128.9,265.9-151.4c43-61.4,43-822.3,0-883.6c-16.4-22.5-137-92.1-265.9-151.4C123.7-581.3,93-601.8,101.2-638.6c4.1-24.6,28.6-143.2,51.1-265.9c40.9-208.6,202.5-744.6,241.4-805.9c14.3-22.5,65.5-22.5,274.1-2c186.1,16.4,267.9,16.4,298.6,0c61.4-32.7,433.6-687.3,433.6-760.9c0-43-43-120.7-143.2-261.8c-77.7-110.5-143.2-208.6-143.2-216.8c0-71.6,752.7-828.4,824.3-828.4c8.2,0,108.4,65.5,218.9,143.2c141.1,100.2,220.9,143.2,263.9,143.2c73.6,0,728.2-372.3,760.9-435.7c16.4-30.7,16.4-110.5-2.1-296.6c-20.5-212.7-20.5-257.7,2.1-272c59.3-36.8,529.8-180,754.8-229.1c407-87.9,345.7-110.5,470.4,161.6c59.3,128.9,128.9,249.6,151.4,265.9c61.4,43,822.3,43,883.6,0c22.5-16.4,92.1-137,151.3-265.9c108.4-235.2,108.4-235.2,171.8-222.9c533.8,94.1,1075.9,259.8,1075.9,329.3c0,20.5-10.2,135-22.5,255.7c-16.4,155.5-16.4,235.2-2.1,268c28.6,65.4,681.1,441.8,762.9,441.8c43,0,120.7-42.9,261.8-143.2c110.4-79.8,210.7-143.2,220.9-143.2c71.6,0,824.3,754.8,824.3,828.4c0,8.2-63.4,106.4-143.2,216.8c-100.2,141.1-143.2,218.8-143.2,261.8c0,73.6,372.3,728.2,435.7,760.9c30.7,16.4,110.5,16.4,296.6-2.1c212.7-20.5,257.7-20.5,272,2.1c36.8,59.3,180,529.8,229.1,754.8c87.9,407.1,110.4,345.7-161.6,470.4c-128.9,59.3-249.6,128.9-265.9,151.4c-43,61.4-43,822.3,0,883.6c16.4,22.5,137,92,265.9,151.4c204.5,94.1,235.2,114.6,227,151.4c-4.1,24.5-28.7,143.2-51.1,265.9c-40.9,208.6-202.5,744.5-243.4,807.9c-14.3,22.5-59.3,22.5-272,2c-186.1-18.4-265.9-18.4-296.6-2c-61.4,32.7-435.7,687.3-435.7,763c0,40.9,42.9,120.7,143.2,259.8c79.8,110.5,143.2,210.7,143.2,220.9c0,71.6-754.8,824.3-828.4,824.3c-8.2,0-106.4-63.4-216.8-143.2c-139.1-100.2-218.9-143.2-259.8-143.2c-75.7,0-730.2,374.3-762.9,435.7c-16.4,30.7-16.4,110.5,2,296.6c20.5,212.7,20.5,257.7-2,272.1c-67.5,45-564.6,192.3-824.3,245.5c-157.5,32.7-288.4,57.3-290.4,53.2c-2.1-2.1-55.2-110.5-116.6-243.4c-63.4-137-128.8-247.5-153.4-259.8c-67.5-36.8-822.3-30.7-875.4,6.1c-22.5,16.4-92,137.1-151.4,265.9c-61.4,130.9-114.5,237.3-120.7,235.2C4280,5010.9,4206.4,4998.6,4126.6,4984.3z M3641.8,2765c801.8-206.6,1075.9-1204.8,488.9-1789.8c-576.8-576.8-1519.8-333.4-1781.6,460.2c-22.5,73.6-36.8,173.9-36.8,286.4c0,421.4,231.1,789.5,609.5,971.6C3167.3,2810,3380,2832.5,3641.8,2765z M6842.9,2777.3c546.1-116.6,922.5-658.6,838.6-1208.9c-65.4-415.2-392.7-771.1-810-879.5c-658.6-167.7-1319.3,353.9-1319.3,1043.2c0,351.8,165.7,666.8,456.1,871.4C6264.1,2783.4,6542.3,2840.7,6842.9,2777.3z M7740.9-972c0-32.7-276.1-419.3-392.7-550.2c-472.5-529.8-1127-897.9-1826.6-1022.7c-278.2-49.1-785.4-49.1-1063.6,0c-863.2,155.4-1615.9,648.4-2100.7,1378.6c-65.4,96.1-114.5,180-110.5,184.1c4.1,4.1,112.5-38.9,241.4-94.1c1165.9-507.3,2493.4-642.3,3757.5-380.4c421.4,85.9,938.8,255.7,1280.4,417.3C7687.7-961.8,7740.9-945.4,7740.9-972z"/></g></g>
</svg>