<?xml version="1.0" encoding="utf-8"?>
<!-- Svg Vector Icons : http://www.sfont.cn -->
<!DOCTYPE svg PUBLIC "-//W3C//DTD SVG 1.1//EN" "http://www.w3.org/Graphics/SVG/1.1/DTD/svg11.dtd">
<svg version="1.1" xmlns="http://www.w3.org/2000/svg" xmlns:xlink="http://www.w3.org/1999/xlink" x="0px" y="0px" viewBox="0 0 1000 1000" enable-background="new 0 0 1000 1000" xml:space="preserve">
<metadata> Svg Vector Icons : http://www.sfont.cn </metadata>
<g><g transform="translate(0.000000,512.000000) scale(0.100000,-0.100000)"><path d="M4529.9,5008.4c-1154.7-118.9-2188.5-608-2999.9-1419.4C751.3,2810.3,287.1,1864.7,124.1,723.5C87.7,462.6,93.4-277.8,135.6-552c84.4-556.2,228.3-1018.5,464.2-1496.1c257-517.9,542.8-914.9,951.4-1317.7c402.8-400.9,774.9-663.6,1290.9-918.7c487.2-237.8,884.2-364.4,1432.8-452.7c308.8-49.9,1043.4-59.5,1329.2-19.2c941.8,136.2,1781.9,492.9,2474.3,1053c987.8,797.9,1611.2,1916.1,1797.2,3218.5c32.6,226.3,32.6,982,0,1208.4c-134.3,939.8-479.5,1758.9-1035.8,2455.1c-282,352.9-723.1,761.5-1081.8,1003.1c-623.4,420.1-1298.5,680.9-2067.7,799.8C5448.6,5018,4775.4,5035.3,4529.9,5008.4z M3877.7,2219.6c30.7-28.8,47.9-69.1,47.9-105.5c0-94-72.9-153.4-188-153.4c-471.8,0-732.7-260.9-732.7-732.7c0-74.8-9.6-103.6-47.9-140c-61.4-63.3-149.6-63.3-211,0c-57.5,55.6-63.3,174.6-19.2,406.6c92.1,479.5,452.7,763.4,984,771.1C3814.5,2267.5,3837.5,2261.8,3877.7,2219.6z M6651.3,2211.9c151.5-47.9,333.8-161.1,416.2-262.8c140-166.9,234-454.6,234-709.7c0-126.6-55.6-199.5-153.4-199.5c-94,0-153.4,72.9-153.4,188c0,466.1-260.8,732.7-717.4,732.7c-138.1,0-203.3,49.9-203.3,153.4c0,57.5,11.5,82.5,53.7,115.1c47.9,38.4,67.1,42.2,224.4,32.6C6447.9,2254.1,6582.2,2233,6651.3,2211.9z M5335.5,2085.3C5956.9,1976,6495.9,1577,6774,1020.8c161.1-322.2,211-544.7,209.1-920.7c-1.9-234-9.6-306.9-51.8-464.2c-78.7-299.2-234-598.4-422-811.3l-67.1-76.7l276.2-280c239.8-243.6,276.2-287.7,276.2-341.4c0-82.5-72.9-155.4-155.4-155.4c-53.7,0-97.8,36.4-345.2,280l-282,280l-176.5-107.4c-352.9-212.9-638.7-291.6-1054.9-287.7c-232.1,1.9-308.8,9.6-462.3,51.8c-211,55.6-433.5,153.4-608,266.6l-120.8,78.6l-283.9-280c-247.4-245.5-291.5-282-345.2-282c-82.5,0-155.4,72.9-155.4,155.4c0,53.7,36.4,97.8,278.1,343.3c255.1,255.1,276.2,283.9,247.4,308.8c-67.1,55.6-218.7,274.3-301.1,435.4c-333.8,648.3-291.6,1404,113.2,2010.1c312.6,469.9,840.1,799.8,1398.3,876.6C4880.9,2119.8,5182,2112.1,5335.5,2085.3z"/><path d="M4725.5,1788c-656-118.9-1154.7-563.9-1350.3-1202.6c-44.1-149.6-49.9-201.4-51.8-456.5c-1.9-316.5,26.9-458.4,140-709.7c477.6-1053,1877.8-1315.8,2706.4-506.4c234,226.3,385.5,487.2,471.8,815.2c53.7,201.4,49.9,598.4-7.7,809.4c-163,602.3-596.5,1041.5-1196.9,1212.2C5279.8,1795.7,4880.9,1816.8,4725.5,1788z M5105.3,1452.3l47.9-46V838.6V272.7h508.3h510.2l46-47.9c51.8-49.9,59.5-97.8,26.9-168.8c-38.4-84.4-80.6-90.1-709.7-90.1h-594.6l-46,47.9l-47.9,46v673.2v673.2l47.9,46c28.8,30.7,69.1,48,105.5,48C5036.2,1500.3,5076.5,1483,5105.3,1452.3z"/></g></g>
</svg>