<?xml version="1.0" encoding="utf-8"?>
<!-- Svg Vector Icons : http://www.sfont.cn -->
<!DOCTYPE svg PUBLIC "-//W3C//DTD SVG 1.1//EN" "http://www.w3.org/Graphics/SVG/1.1/DTD/svg11.dtd">
<svg version="1.1" xmlns="http://www.w3.org/2000/svg" xmlns:xlink="http://www.w3.org/1999/xlink" x="0px" y="0px" viewBox="0 0 1000 1000" enable-background="new 0 0 1000 1000" xml:space="preserve">
<metadata> Svg Vector Icons : http://www.sfont.cn </metadata>
<g><g transform="translate(0.000000,512.000000) scale(0.100000,-0.100000)"><path d="M4529.9,5008.4c-1154.7-118.9-2188.5-608-2999.9-1419.4C751.3,2810.3,287.1,1864.7,124.1,723.5C87.7,462.6,93.4-277.8,135.6-552c84.4-556.2,228.3-1018.5,464.2-1496.1c257-517.9,542.8-914.9,951.4-1317.7c402.8-400.9,774.9-663.6,1290.9-918.7c487.2-237.8,884.2-364.4,1432.8-452.7c308.8-49.9,1043.4-59.5,1329.2-19.2c941.8,136.2,1781.9,492.9,2474.3,1053c987.8,797.9,1611.2,1916.1,1797.2,3218.5c32.6,226.3,32.6,982,0,1208.4c-134.3,939.8-479.5,1758.9-1035.8,2455.1c-282,352.9-723.1,761.5-1081.8,1003.1c-623.4,420.1-1298.5,680.9-2067.7,799.8C5448.6,5018,4775.4,5035.3,4529.9,5008.4z M5824.6,583.5c352.9-237.8,650.2-439.2,661.7-446.9c9.6-9.6-650.2-17.3-1501.8-17.3H3465.4v153.4v153.4h1020.4h1022.3l-249.3,165c-138.1,92.1-257,172.6-266.6,182.2c-23,21.1,141.9,268.5,168.8,253.2C5172.4,1018.9,5471.6,821.3,5824.6,583.5z M6515.1-341v-153.4H5494.7H4474.3l257-172.6c141.9-95.9,260.9-178.4,264.7-182.2c19.2-17.3-153.4-258.9-176.5-245.5c-44.1,24.9-1306.2,874.6-1323.5,890c-11.5,9.6,619.5,17.3,1499.9,17.3h1519.1V-341z"/></g></g>
</svg>