<?xml version="1.0" encoding="utf-8"?>
<!-- Svg Vector Icons : http://www.sfont.cn -->
<!DOCTYPE svg PUBLIC "-//W3C//DTD SVG 1.1//EN" "http://www.w3.org/Graphics/SVG/1.1/DTD/svg11.dtd">
<svg version="1.1" xmlns="http://www.w3.org/2000/svg" xmlns:xlink="http://www.w3.org/1999/xlink" x="0px" y="0px" viewBox="0 0 1000 1000" enable-background="new 0 0 1000 1000" xml:space="preserve">
<metadata> Svg Vector Icons : http://www.sfont.cn </metadata>
<g><g transform="translate(0.000000,512.000000) scale(0.100000,-0.100000)"><path d="M4546.1,5012.8c-1158.2-113.1-2212.9-613.6-3029.8-1440.1C757,2803.8,306.3,1896.8,135.7,794.1c-51.8-339.4-46-1033.6,9.6-1390.2c86.3-544.6,224.4-981.8,466-1465C1088.7-3025.7,1850-3787,2816.5-4266.4c1194.6-594.5,2540.8-678.8,3814.1-241.6c268.5,92,805.4,358.6,1054.7,521.6c406.5,268.5,849.5,671.2,1154.4,1050.8c454.5,567.6,824.6,1353.8,962.6,2046.1C9884.7-483,9900-325.7,9900,123c0,594.5-65.2,1006.7-237.8,1530.2c-243.5,742.1-621.3,1357.7-1177.4,1919.5c-763.2,772.8-1693.2,1242.6-2793.9,1411.3C5453.1,5020.5,4797.3,5035.8,4546.1,5012.8z M5508.7,2146c749.8-132.3,1376.8-709.5,1576.3-1457.4c44.1-170.7,49.8-226.3,49.8-498.6c0-270.4-5.7-329.8-49.8-492.8c-90.1-335.6-247.4-623.2-479.4-872.5c-141.9-153.4-253.1-235.9-312.6-235.9c-71,0-147.7,80.5-147.7,151.5c0,53.7,23,86.3,145.7,205.2c195.6,189.8,283.8,308.7,385.4,525.4C6805-252.8,6831.9-128.2,6830,199.7c-1.9,245.4-7.7,299.1-51.8,446.8c-97.8,318.3-243.5,554.2-479.4,772.8c-450.6,418-1075.8,556.1-1662.5,368.2c-546.5-176.4-960.7-615.5-1116-1183.1c-32.6-117-40.3-201.3-40.3-423.8c0-247.3,5.8-297.2,49.9-446.8c95.9-312.6,232-535,481.3-780.5c113.1-111.2,145.7-155.3,145.7-197.5c0-78.6-28.8-120.8-95.9-145.7c-80.5-26.9-126.6-5.8-268.5,126.6c-260.8,239.7-477.5,605.9-565.7,955C2973.7,688.7,3514.5,1710.7,4479,2059.7C4789.6,2172.9,5171.3,2203.6,5508.7,2146z M5259.5,1321.5l47.9-46V504.6v-772.8l216.7,214.8c186,184.1,228.2,214.8,280,214.8c82.5,0,155.3-72.9,155.3-157.2c0-55.6-40.3-103.5-370.1-431.5c-335.6-335.6-375.8-370.1-435.3-370.1c-57.5,0-97.8,32.6-408.4,341.3c-339.4,337.5-396.9,406.5-396.9,483.2c0,61.4,84.4,134.2,155.3,134.2c51.8,0,94-30.7,280-214.8l216.7-214.8v768.9c0,747.9,1.9,768.9,40.3,818.8C5094.6,1386.7,5194.3,1388.6,5259.5,1321.5z M5836.7-1148.4c38.4-32.6,51.8-63.3,51.8-109.3c0-46-13.4-76.7-51.8-109.3l-51.8-44.1h-629c-607.9,0-630.9,1.9-680.8,40.3c-38.3,30.7-49.9,55.6-49.9,113.1s11.5,82.5,49.9,113.1c49.9,38.3,72.9,40.3,680.8,40.3h629L5836.7-1148.4z"/></g></g>
</svg>