<?xml version="1.0" encoding="utf-8"?>
<!-- Svg Vector Icons : http://www.sfont.cn -->
<!DOCTYPE svg PUBLIC "-//W3C//DTD SVG 1.1//EN" "http://www.w3.org/Graphics/SVG/1.1/DTD/svg11.dtd">
<svg version="1.1" xmlns="http://www.w3.org/2000/svg" xmlns:xlink="http://www.w3.org/1999/xlink" x="0px" y="0px" viewBox="0 0 1000 1000" enable-background="new 0 0 1000 1000" xml:space="preserve">
<metadata> Svg Vector Icons : http://www.sfont.cn </metadata>
<g><g transform="translate(0.000000,512.000000) scale(0.100000,-0.100000)"><path d="M4546.1,5012.8c-1158.2-113.1-2212.9-613.6-3029.8-1440.1C757,2803.8,306.3,1896.8,135.7,794.1c-51.8-339.4-46-1033.6,9.6-1390.2c86.3-544.6,224.4-981.8,466-1465C1088.7-3025.7,1850-3787,2816.5-4266.4c1194.6-594.5,2540.8-678.8,3814.1-241.6c268.5,92,805.4,358.6,1054.7,521.6c406.5,268.5,849.5,671.2,1154.4,1050.8c454.5,567.6,824.6,1353.8,962.6,2046.1C9884.7-483,9900-325.7,9900,123c0,594.5-65.2,1006.7-237.8,1530.2c-243.5,742.1-621.3,1357.7-1177.4,1919.5c-763.2,772.8-1693.2,1242.6-2793.9,1411.3C5453.1,5020.5,4797.3,5035.8,4546.1,5012.8z M6011.2,1047.3l1001-1221.5l-646.2-9.6l-646.2-9.6l-5.8-914.7l-3.8-916.6h-709.5h-709.5l-3.8,916.6l-5.7,914.7l-646.2,9.6l-646.2,9.6l1001,1221.5c550.3,671.2,1004.8,1221.5,1010.6,1221.5S5460.8,1718.4,6011.2,1047.3z"/><path d="M4312.2,953.3l-673.1-820.7l473.6-9.6l475.6-9.6l5.8-914.7l3.8-916.6h402.7h402.7l3.8,916.6l5.8,914.7l475.5,9.6l473.7,9.6l-669.2,815c-368.2,446.8-676.9,816.9-688.4,820.7C4994.8,1770.2,4684.2,1403.9,4312.2,953.3z"/></g></g>
</svg>