<?xml version="1.0" encoding="utf-8"?>
<!-- Svg Vector Icons : http://www.sfont.cn -->
<!DOCTYPE svg PUBLIC "-//W3C//DTD SVG 1.1//EN" "http://www.w3.org/Graphics/SVG/1.1/DTD/svg11.dtd">
<svg version="1.1" xmlns="http://www.w3.org/2000/svg" xmlns:xlink="http://www.w3.org/1999/xlink" x="0px" y="0px" viewBox="0 0 1000 1000" enable-background="new 0 0 1000 1000" xml:space="preserve">
<metadata> Svg Vector Icons : http://www.sfont.cn </metadata>
<g><g transform="translate(0.000000,512.000000) scale(0.100000,-0.100000)"><path d="M4546.1,5012.8c-1158.2-113.1-2212.9-613.6-3029.8-1440.1C757,2803.8,306.3,1896.8,135.7,794.1c-51.8-339.4-46-1033.6,9.6-1390.2c86.3-544.6,224.4-981.8,466-1465C1088.7-3025.7,1850-3787,2816.5-4266.4c1194.6-594.5,2540.8-678.8,3814.1-241.6c268.5,92,805.4,358.6,1054.7,521.6c406.5,268.5,849.5,671.2,1154.4,1050.8c454.5,567.6,824.6,1353.8,962.6,2046.1C9884.7-483,9900-325.7,9900,123c0,594.5-65.2,1006.7-237.8,1530.2c-243.5,742.1-621.3,1357.7-1177.4,1919.5c-763.2,772.8-1693.2,1242.6-2793.9,1411.3C5453.1,5020.5,4797.3,5035.8,4546.1,5012.8z M5667.9,1822c701.8-195.6,1229.2-726.8,1419-1428.6c42.2-161.1,47.9-220.5,47.9-490.9c0-270.4-5.7-329.8-49.8-492.8c-90.1-335.6-247.4-623.2-479.4-872.5c-141.9-151.5-253.1-235.9-310.7-235.9c-76.7,0-143.8,71-143.8,149.6c0,63.3,15.3,86.3,140,205.2c233.9,222.5,377.8,448.7,469.8,732.5c155.3,473.6,72.9,1043.2-212.8,1463.1c-88.2,128.5-276.1,320.2-406.5,412.3c-324.1,230.1-680.7,331.7-1079.6,310.6c-738.3-40.3-1344.2-535-1541.7-1257.9c-32.6-117-40.3-201.3-40.3-423.8c0-247.4,5.8-297.2,49.9-446.8c95.9-314.5,230.1-533.1,471.7-770.9c132.3-130.4,155.3-163,155.3-216.7c0-76.7-72.9-157.2-141.9-157.2c-90.1,0-352.8,249.3-513.9,485.1c-113.1,164.9-222.4,410.4-278.1,623.2c-44.1,163-49.8,222.5-49.8,492.8c0,249.3,7.7,333.6,38.4,450.6c193.7,703.8,657.7,1211.9,1304,1430.5c247.4,84.4,391.2,103.5,696.1,95.9C5435.9,1871.8,5524.1,1862.2,5667.9,1822z M5591.2,98.1c312.6-314.5,368.2-379.7,368.2-427.6c0-115.1-115.1-191.8-214.8-141.9c-24.9,13.4-132.3,111.2-239.7,216.7L5307.4-59.2V-832v-772.8l-47.9-46c-28.8-30.7-69-47.9-105.5-47.9c-36.4,0-76.7,17.3-105.5,47.9l-47.9,46v770.9v772.8l-207.1-203.3c-113.1-113.1-228.2-209-257-216.7c-107.4-26.8-209,76.7-180.2,187.9c5.8,23,172.6,203.3,372,402.7c329.8,327.9,366.3,358.6,427.6,358.6C5217.3,468.1,5253.7,437.5,5591.2,98.1z"/></g></g>
</svg>