<?xml version="1.0" encoding="utf-8"?>
<!-- Svg Vector Icons : http://www.sfont.cn -->
<!DOCTYPE svg PUBLIC "-//W3C//DTD SVG 1.1//EN" "http://www.w3.org/Graphics/SVG/1.1/DTD/svg11.dtd">
<svg version="1.1" xmlns="http://www.w3.org/2000/svg" xmlns:xlink="http://www.w3.org/1999/xlink" x="0px" y="0px" viewBox="0 0 1000 1000" enable-background="new 0 0 1000 1000" xml:space="preserve">
<metadata> Svg Vector Icons : http://www.sfont.cn </metadata>
<g><g transform="translate(0.000000,512.000000) scale(0.100000,-0.100000)"><path d="M4529.9,5008.4c-1154.7-118.9-2188.5-608-2999.9-1419.4C751.3,2810.3,287.1,1864.7,124.1,723.5C87.7,462.6,93.4-277.8,135.6-552c84.4-556.2,228.3-1018.5,464.2-1496.1c257-517.9,542.8-914.9,951.4-1317.7c402.8-400.9,774.9-663.6,1290.9-918.7c487.2-237.8,884.2-364.4,1432.8-452.7c308.8-49.9,1043.4-59.5,1329.2-19.2c941.8,136.2,1781.9,492.9,2474.3,1053c987.8,797.9,1611.2,1916.1,1797.2,3218.5c32.6,226.3,32.6,982,0,1208.4c-134.3,939.8-479.5,1758.9-1035.8,2455.1c-282,352.9-723.1,761.5-1081.8,1003.1c-623.4,420.1-1298.5,680.9-2067.7,799.8C5448.6,5018,4775.4,5035.3,4529.9,5008.4z M6179.4,2219.6c30.7-28.8,47.9-69.1,47.9-105.5c0-97.8-72.9-153.4-201.4-153.4h-105.5V675.5V-609.6H6026c88.2,0,115.1-7.7,153.4-47.9c76.7-74.8,61.4-184.1-30.7-230.2c-42.2-23-140-28.8-448.8-28.8h-393.2v-815.2v-817.1l-47.9-46c-61.4-63.3-149.6-63.3-211,0l-47.9,46v815.2v815.2l-423.9,5.8c-418.1,5.8-423.9,5.8-460.3,51.8c-49.9,61.4-46,147.7,11.5,203.3c38.4,40.3,65.2,47.9,153.4,47.9H4386V675.5v1285.1h-103.6c-138.1,0-203.3,49.9-203.3,153.4c0,57.5,11.5,82.5,49.9,113.2c49.9,40.3,69.1,40.3,1028.1,40.3h976.3L6179.4,2219.6z"/><path d="M4692.9,675.5V-609.6h460.3h460.3V675.5v1285.1h-460.3h-460.3V675.5z"/></g></g>
</svg>