<?xml version="1.0" encoding="utf-8"?>
<!-- Svg Vector Icons : http://www.sfont.cn -->
<!DOCTYPE svg PUBLIC "-//W3C//DTD SVG 1.1//EN" "http://www.w3.org/Graphics/SVG/1.1/DTD/svg11.dtd">
<svg version="1.1" xmlns="http://www.w3.org/2000/svg" xmlns:xlink="http://www.w3.org/1999/xlink" x="0px" y="0px" viewBox="0 0 1000 1000" enable-background="new 0 0 1000 1000" xml:space="preserve">
<metadata> Svg Vector Icons : http://www.sfont.cn </metadata>
<g><g transform="translate(0.000000,512.000000) scale(0.100000,-0.100000)"><path d="M4529.9,5008.4c-1154.7-118.9-2188.5-608-2999.9-1419.4C751.3,2810.3,287.1,1864.7,124.1,723.5C87.7,462.6,93.4-277.8,135.6-552c84.4-556.2,228.3-1018.5,464.2-1496.1c257-517.9,542.8-914.9,951.4-1317.7c402.8-400.9,774.9-663.6,1290.9-918.7c487.2-237.8,884.2-364.4,1432.8-452.7c308.8-49.9,1043.4-59.5,1329.2-19.2c941.8,136.2,1781.9,492.9,2474.3,1053c987.8,797.9,1611.2,1916.1,1797.2,3218.5c32.6,226.3,32.6,982,0,1208.4c-134.3,939.8-479.5,1758.9-1035.8,2455.1c-282,352.9-723.1,761.5-1081.8,1003.1c-623.4,420.1-1298.5,680.9-2067.7,799.8C5448.6,5018,4775.4,5035.3,4529.9,5008.4z M5105.3,2219.6c30.7-28.8,47.9-69.1,47.9-105.5s-17.3-76.7-47.9-105.5c-94-95.9-258.9-28.8-258.9,105.5c0,78.6,74.8,153.4,153.4,153.4C5036.2,2267.5,5076.5,2250.3,5105.3,2219.6z M3714.7,1615.4c30.7-59.5,21.1-151.5-19.2-191.8c-38.4-38.4-120.8-49.9-182.2-26.9c-51.8,21.1-86.3,118.9-63.3,186C3488.4,1688.3,3662.9,1711.3,3714.7,1615.4z M6534.3,1615.4c57.5-109.3-7.7-230.2-124.7-230.2c-113.2,0-176.5,105.5-132.4,220.6C6311.8,1692.1,6490.1,1697.8,6534.3,1615.4z M5364.2,1609.6c297.3-82.5,521.7-211,725-416.2C6682,593,6678.1-364.1,6079.7-962.5c-600.4-598.4-1563.2-600.4-2161.6,0c-563.9,563.9-602.3,1463.5-88.2,2069.6c230.2,270.4,523.6,443.1,882.3,519.8C4865.6,1659.5,5214.6,1649.9,5364.2,1609.6z M3110.5,224.8c95.9-94,28.8-258.9-105.5-258.9c-36.4,0-76.7,17.3-105.5,47.9c-95.9,94-28.8,258.9,105.5,258.9C3041.5,272.7,3081.8,255.5,3110.5,224.8z M7100.1,224.8c95.9-94,28.8-258.9-105.5-258.9c-78.6,0-153.4,74.8-153.4,153.4c0,36.4,17.3,76.7,47.9,105.5c28.8,30.7,69,47.9,105.5,47.9C7031,272.7,7071.3,255.5,7100.1,224.8z M3695.5-1185c86.3-86.3,24.9-249.3-94-249.3c-84.4,0-118.9,19.2-145.8,84.4c-26.9,65.2-9.6,140,42.2,180.3C3547.8-1133.2,3651.4-1140.9,3695.5-1185z M6495.9-1165.8c95.9-51.8,72.9-226.3-32.6-264.7c-67.1-23-165,11.5-186.1,63.3c-23,61.4-11.5,143.8,26.9,182.2C6344.4-1144.7,6436.4-1135.1,6495.9-1165.8z M5105.3-1770c95.9-94,28.8-258.9-105.5-258.9c-36.4,0-76.7,17.3-105.5,47.9c-30.7,28.8-47.9,69-47.9,105.5c0,36.4,17.3,76.7,47.9,105.5c28.8,30.7,69.1,48,105.5,48C5036.2-1722.1,5076.5-1739.3,5105.3-1770z"/><path d="M4731.3,1316.2C4282.5,1220.2,3895,829,3801,378.2C3618.8-492.6,4388-1261.7,5258.7-1079.5c456.5,95.9,843.9,483.4,939.9,939.9C6380.8,735,5605.9,1504.1,4731.3,1316.2z"/></g></g>
</svg>