<?xml version="1.0" encoding="utf-8"?>
<!-- Svg Vector Icons : http://www.sfont.cn -->
<!DOCTYPE svg PUBLIC "-//W3C//DTD SVG 1.1//EN" "http://www.w3.org/Graphics/SVG/1.1/DTD/svg11.dtd">
<svg version="1.1" xmlns="http://www.w3.org/2000/svg" xmlns:xlink="http://www.w3.org/1999/xlink" x="0px" y="0px" viewBox="0 0 1000 1000" enable-background="new 0 0 1000 1000" xml:space="preserve">
<metadata> Svg Vector Icons : http://www.sfont.cn </metadata>
<g><g transform="translate(0.000000,512.000000) scale(0.100000,-0.100000)"><path d="M4529.9,5008.4c-1154.7-118.9-2188.5-608-2999.9-1419.4C751.3,2810.3,287.1,1864.7,124.1,723.5C87.7,462.6,93.4-277.8,135.6-552c84.4-556.2,228.3-1018.5,464.2-1496.1c257-517.9,542.8-914.9,951.4-1317.7c402.8-400.9,774.9-663.6,1290.9-918.7c487.2-237.8,884.2-364.4,1432.8-452.7c308.8-49.9,1043.4-59.5,1329.2-19.2c941.8,136.2,1781.9,492.9,2474.3,1053c987.8,797.9,1611.2,1916.1,1797.2,3218.5c32.6,226.3,32.6,982,0,1208.4c-134.3,939.8-479.5,1758.9-1035.8,2455.1c-282,352.9-723.1,761.5-1081.8,1003.1c-623.4,420.1-1298.5,680.9-2067.7,799.8C5448.6,5018,4775.4,5035.3,4529.9,5008.4z M5797.7,1832.1l734.6-744.2l1.9,322.2c0,316.5,0,322.2,48,368.3c55.6,57.5,141.9,61.4,203.3,11.5c46-36.4,46-38.4,51.8-523.6l5.8-485.3l305-308.8c310.7-312.6,331.8-343.3,295.4-439.2c-19.2-46-118.9-92.1-178.4-76.7c-26.8,5.8-134.3,94-235.9,195.6L6843.1,336l-5.8-1043.4c-7.7-1003.1-7.7-1047.3-47.9-1164.2c-57.5-172.6-153.4-293.5-293.5-366.4c-163-84.4-212.9-88.2-1515.3-88.2H3743.5l-141.9,44.1c-193.7,61.4-324.2,188-387.5,379.8c-44.1,130.4-46,143.9-51.8,1183.5c-3.8,577.3-13.4,1049.2-23,1049.2c-7.7,0-82.5-74.8-165-165C2767.2-62.9,2682.8-97.5,2583.1,8c-94,101.6-122.8,67.1,1043.4,1250.6c594.6,602.3,1133.6,1145.1,1196.9,1206.5C5017.1,2647.3,4948,2693.3,5797.7,1832.1z"/><path d="M4226.8,1427.4l-761.5-761.5V-484.9c0-1254.4,5.7-1325.4,103.6-1427.1c78.6-82.5,166.9-101.7,506.4-111.2l310.7-9.6v721.2v723.1l48,46l46,47.9h508.3c278.1,0,521.7-5.8,539-11.5c80.6-30.7,86.3-86.3,86.3-822.8v-700.1h234c427.7,0,567.7,47.9,638.7,220.6c36.5,92.1,38.4,143.9,44.1,1277.4l5.8,1179.6l-761.5,771.1c-418.1,423.9-765.3,771.1-773,771.1C4996,2190.8,4646.9,1847.5,4226.8,1427.4z M5251.1,1285.5c132.4-61.4,239.8-168.8,303.1-303c103.6-220.6,51.8-502.5-124.7-679c-120.8-120.8-257-174.5-439.2-174.5c-182.2,1.9-299.2,49.9-423.9,172.6C4246,621.8,4372.6,1157,4808,1316.2C4928.8,1360.3,5118.7,1346.8,5251.1,1285.5z"/><path d="M4875.1,1013.1c-71-30.7-157.3-130.4-174.5-195.6c-46-178.4,82.5-364.4,264.7-385.5c111.2-13.4,207.1,28.8,276.2,120.8c46,59.5,55.6,90.1,55.6,180.3c-1.9,90.2-11.5,122.8-55.6,182.2C5153.3,1030.4,5005.6,1070.6,4875.1,1013.1z"/><path d="M4692.9-1415.2v-613.8h306.9h306.9v613.8v613.8h-306.9h-306.9V-1415.2z"/></g></g>
</svg>