<?xml version="1.0" encoding="utf-8"?>
<!-- Svg Vector Icons : http://www.sfont.cn -->
<!DOCTYPE svg PUBLIC "-//W3C//DTD SVG 1.1//EN" "http://www.w3.org/Graphics/SVG/1.1/DTD/svg11.dtd">
<svg version="1.1" xmlns="http://www.w3.org/2000/svg" xmlns:xlink="http://www.w3.org/1999/xlink" x="0px" y="0px" viewBox="0 0 1000 1000" enable-background="new 0 0 1000 1000" xml:space="preserve">
<metadata> Svg Vector Icons : http://www.sfont.cn </metadata>
<g><g transform="translate(0.000000,512.000000) scale(0.100000,-0.100000)"><path d="M4529.9,5008.4c-1154.7-118.9-2188.5-608-2999.9-1419.4C751.3,2810.3,287.1,1864.7,124.1,723.5C87.7,462.6,93.4-277.8,135.6-552c84.4-556.2,228.3-1018.5,464.2-1496.1c257-517.9,542.8-914.9,951.4-1317.7c402.8-400.9,774.9-663.6,1290.9-918.7c487.2-237.8,884.2-364.4,1432.8-452.7c308.8-49.9,1043.4-59.5,1329.2-19.2c941.8,136.2,1781.9,492.9,2474.3,1053c987.8,797.9,1611.2,1916.1,1797.2,3218.5c32.6,226.3,32.6,982,0,1208.4c-134.3,939.8-479.5,1758.9-1035.8,2455.1c-282,352.9-723.1,761.5-1081.8,1003.1c-623.4,420.1-1298.5,680.9-2067.7,799.8C5448.6,5018,4775.4,5035.3,4529.9,5008.4z M5498.5,2365.3c932.2-212.9,1634.2-966.7,1772.3-1906.6c38.4-253.2,38.4-425.8,0-679c-147.7-999.3-932.2-1783.8-1931.5-1931.5c-454.6-69-903.4-3.8-1313.9,189.9C2838.2-1399.8,2358.6,15.7,2960.9,1180c322.2,623.4,957.1,1093.3,1626.5,1200.7c74.8,11.5,155.4,24.9,182.2,28.8C4882.8,2428.6,5343.1,2401.8,5498.5,2365.3z"/><path d="M4740.9,2102.6c-836.3-132.3-1480.8-715.4-1684.1-1522.9c-59.5-234-59.5-686.7,0-920.7c239.8-947.5,1095.2-1582.4,2058.1-1528.7c1310,76.7,2188.5,1373.3,1772.3,2620.1c-36.5,111.3-94,249.3-126.6,306.9c-285.8,510.2-746.1,867-1290.8,1001.2C5318.2,2096.8,4875.1,2123.7,4740.9,2102.6z M4660.3,679.4l339.5-339.5l341.4,339.5c205.2,205.2,358.7,343.3,391.3,351c97.8,24.9,203.3-80.6,178.4-176.5c-7.7-34.5-140-182.2-351-395.1l-339.5-339.5L5565.6-226C5880.2-540.5,5909-575.1,5909-636.4c0-113.2-111.3-191.8-205.2-143.9c-23,11.5-191.8,168.8-372.1,349.1l-331.8,329.9l-339.5-339.5c-188-184.1-360.6-343.3-381.7-349.1c-99.7-30.7-214.8,76.7-191.8,174.6c9.6,34.5,138.1,178.4,352.9,395.1l339.5,339.5l-339.5,341.4c-389.4,387.5-406.6,420.1-305,523.6C4238.3,1086,4271,1068.7,4660.3,679.4z"/></g></g>
</svg>