<?xml version="1.0" encoding="utf-8"?>
<!-- Svg Vector Icons : http://www.sfont.cn -->
<!DOCTYPE svg PUBLIC "-//W3C//DTD SVG 1.1//EN" "http://www.w3.org/Graphics/SVG/1.1/DTD/svg11.dtd">
<svg version="1.1" xmlns="http://www.w3.org/2000/svg" xmlns:xlink="http://www.w3.org/1999/xlink" x="0px" y="0px" viewBox="0 0 1000 1000" enable-background="new 0 0 1000 1000" xml:space="preserve">
<metadata> Svg Vector Icons : http://www.sfont.cn </metadata>
<g><g transform="translate(0.000000,512.000000) scale(0.100000,-0.100000)"><path d="M4529.9,5008.4c-1154.7-118.9-2188.5-608-2999.9-1419.4C751.3,2810.3,287.1,1864.7,124.1,723.5C87.7,462.6,93.4-277.8,135.6-552c84.4-556.2,228.3-1018.5,464.2-1496.1c257-517.9,542.8-914.9,951.4-1317.7c402.8-400.9,774.9-663.6,1290.9-918.7c487.2-237.8,884.2-364.4,1432.8-452.7c308.8-49.9,1043.4-59.5,1329.2-19.2c941.8,136.2,1781.9,492.9,2474.3,1053c987.8,797.9,1611.2,1916.1,1797.2,3218.5c32.6,226.3,32.6,982,0,1208.4c-134.3,939.8-479.5,1758.9-1035.8,2455.1c-282,352.9-723.1,761.5-1081.8,1003.1c-623.4,420.1-1298.5,680.9-2067.7,799.8C5448.6,5018,4775.4,5035.3,4529.9,5008.4z M6845,1580.8c134.3-65.2,203.3-138.1,258.9-274.3c30.7-76.7,34.5-165,34.5-1033.8c0-868.9-3.8-957.1-34.5-1033.8c-55.6-134.3-124.7-209.1-257-274.3c-115.1-55.6-140-61.4-372.1-69l-247.4-9.6v-544.7c0-448.8-5.8-554.3-28.8-600.4c-30.7-61.4-97.8-88.2-168.8-69.1c-24.9,5.8-257,255.1-569.7,613.8l-527.5,602.3l-826.7,5.8l-826.7,7.7l-130.4,67.1c-153.4,78.6-243.6,191.8-276.2,345.3c-28.8,130.4-28.8,1785.7,0,1916.1c40.3,193.7,184.1,345.2,377.9,397c71,19.2,458.4,23,1778,21.1l1687.9-3.8L6845,1580.8z"/><path d="M3292.7,1312.3c-134.3-67.1-134.3-63.3-134.3-1035.8c0-945.6,1.9-964.8,107.4-1033.8c49.9-32.6,122.8-34.5,918.7-44.1c473.8-5.7,876.6-17.3,891.9-24.9c15.3-9.6,211-224.4,431.6-477.6l402.8-462.2l9.6,429.6c5.8,235.9,17.3,443.1,24.9,462.3c28.8,55.6,113.2,71,425.8,76.7c260.8,5.7,316.5,11.5,362.5,40.3c107.4,71,109.3,86.3,103.6,1058.8c-5.8,868.9-5.8,890-46,943.7c-21.1,28.8-69.1,63.3-105.5,76.7c-48,17.3-483.4,23-1695.6,23C3475,1346.8,3356,1344.9,3292.7,1312.3z"/></g></g>
</svg>