<?xml version="1.0" encoding="utf-8"?>
<!-- Svg Vector Icons : http://www.sfont.cn -->
<!DOCTYPE svg PUBLIC "-//W3C//DTD SVG 1.1//EN" "http://www.w3.org/Graphics/SVG/1.1/DTD/svg11.dtd">
<svg version="1.1" xmlns="http://www.w3.org/2000/svg" xmlns:xlink="http://www.w3.org/1999/xlink" x="0px" y="0px" viewBox="0 0 1000 1000" enable-background="new 0 0 1000 1000" xml:space="preserve">
<metadata> Svg Vector Icons : http://www.sfont.cn </metadata>
<g><g transform="translate(0.000000,512.000000) scale(0.100000,-0.100000)"><path d="M4529.9,5008.4c-1154.7-118.9-2188.5-608-2999.9-1419.4C751.3,2810.3,287.1,1864.7,124.1,723.5C87.7,462.6,93.4-277.8,135.6-552c84.4-556.2,228.3-1018.5,464.2-1496.1c257-517.9,542.8-914.9,951.4-1317.7c402.8-400.9,774.9-663.6,1290.9-918.7c487.2-237.8,884.2-364.4,1432.8-452.7c308.8-49.9,1043.4-59.5,1329.2-19.2c941.8,136.2,1781.9,492.9,2474.3,1053c987.8,797.9,1611.2,1916.1,1797.2,3218.5c32.6,226.3,32.6,982,0,1208.4c-134.3,939.8-479.5,1758.9-1035.8,2455.1c-282,352.9-723.1,761.5-1081.8,1003.1c-623.4,420.1-1298.5,680.9-2067.7,799.8C5448.6,5018,4775.4,5035.3,4529.9,5008.4z M6073.9,2152.4c377.9-46,757.6-191.8,987.8-377.9c132.4-105.5,260.8-287.7,303-422c76.7-251.3,76.7-247.4,55.6-362.5c-26.9-147.7-61.4-228.2-155.4-352.9c-94-122.8-239.8-247.4-389.4-326.1c-61.4-32.6-111.2-67.1-111.2-76.7c0-7.7,30.7-113.2,69-234c38.4-118.9,72.9-270.4,78.7-335.7c9.6-113.2,7.7-120.8-48-176.5c-115.1-115.1-178.4-82.5-535.1,270.4L6037.5,48.3l-255.1-3.8C5013.2,31,4370.7,322.6,4140.5,788.7c-65.2,134.3-71,155.4-71,316.5c0,157.3,5.8,188,61.4,305C4380.3,1935.7,5218.5,2256,6073.9,2152.4z M4729.4-62.9c375.9-72.9,709.7-234,924.5-448.8c454.6-456.5,295.4-1058.8-370.2-1394.4c-305-153.4-633-222.5-1056.8-224.4H3941l-289.6-291.6c-310.7-312.6-360.6-343.3-473.8-297.3c-30.7,13.4-69.1,51.8-86.3,88.2c-38.4,80.6-23,165,80.6,492.9c36.4,115.1,63.3,211,59.5,214.8c-3.8,1.9-59.5,32.6-126.6,67.1c-397,209.1-613.8,617.6-512.1,970.5c120.8,423.9,640.6,757.6,1317.7,849.7C4098.3-11.1,4529.9-24.6,4729.4-62.9z"/><path d="M5354.6,1834c-272.4-49.9-462.2-118.9-650.2-237.8c-650.2-410.5-320.3-1037.7,640.6-1218c117-21.1,251.3-28.8,471.8-24.9c356.8,5.7,335.7,11.5,552.4-193.7c105.5-99.7,130.4-117,118.9-78.6c-82.5,299.2-71,331.8,165,454.6c728.9,375.9,596.5,984-272.4,1244.8C6100.8,1864.7,5652,1887.7,5354.6,1834z"/><path d="M3916.1-343c-604.2-88.2-1047.3-399-1045.3-734.6c0-55.6,17.3-134.3,38.4-180.3c55.6-122.8,230.2-280,410.5-368.3c86.3-42.2,170.7-95.9,189.9-117c40.3-49.9,44.1-186,5.8-312.6l-26.9-90.2l170.7,163l170.7,163l329.9-3.8c372.1-1.9,563.9,24.9,822.9,120.8c270.4,97.8,491,264.7,585,443.1c51.8,95.9,46,272.4-9.6,379.8c-95.9,184.2-360.6,368.3-663.6,462.3C4614.3-331.5,4207.7-300.8,3916.1-343z"/></g></g>
</svg>