<?xml version="1.0" encoding="utf-8"?>
<!-- Svg Vector Icons : http://www.sfont.cn -->
<!DOCTYPE svg PUBLIC "-//W3C//DTD SVG 1.1//EN" "http://www.w3.org/Graphics/SVG/1.1/DTD/svg11.dtd">
<svg version="1.1" xmlns="http://www.w3.org/2000/svg" xmlns:xlink="http://www.w3.org/1999/xlink" x="0px" y="0px" viewBox="0 0 1000 1000" enable-background="new 0 0 1000 1000" xml:space="preserve">
<metadata> Svg Vector Icons : http://www.sfont.cn </metadata>
<g><g transform="translate(0.000000,512.000000) scale(0.100000,-0.100000)"><path d="M4529.9,5008.4c-1154.7-118.9-2188.5-608-2999.9-1419.4C751.3,2810.3,287.1,1864.7,124.1,723.5C87.7,462.6,93.4-277.8,135.6-552c84.4-556.2,228.3-1018.5,464.2-1496.1c257-517.9,542.8-914.9,951.4-1317.7c402.8-400.9,774.9-663.6,1290.9-918.7c487.2-237.8,884.2-364.4,1432.8-452.7c308.8-49.9,1043.4-59.5,1329.2-19.2c941.8,136.2,1781.9,492.9,2474.3,1053c987.8,797.9,1611.2,1916.1,1797.2,3218.5c32.6,226.3,32.6,982,0,1208.4c-134.3,939.8-479.5,1758.9-1035.8,2455.1c-282,352.9-723.1,761.5-1081.8,1003.1c-623.4,420.1-1298.5,680.9-2067.7,799.8C5448.6,5018,4775.4,5035.3,4529.9,5008.4z M5398.8,1939.5c1335-143.9,2223-907.2,2027.4-1739.7c-86.3-362.5-406.6-726.9-817.1-928.3c-132.4-65.2-168.8-92.1-168.8-124.7c-1.9-23,36.4-164.9,82.5-316.5c189.9-613.8,201.4-684.7,109.3-786.4c-74.8-84.4-174.5-86.3-287.7-7.7c-44.1,30.7-258.9,241.7-475.7,466.1l-395.1,408.5l-308.8-11.5c-656-26.8-1242.9,92.1-1739.7,351C2257-143.5,2257,995.8,3425.1,1601.9C3973.7,1887.7,4715.9,2014.3,5398.8,1939.5z"/><path d="M4664.2,1642.2c-613.8-67.1-1164.3-280-1484.6-573.5c-427.7-389.4-431.6-878.5-11.5-1271.7c283.9-266.6,702-452.7,1246.7-552.4c153.4-28.8,287.7-36.4,673.2-36.4h481.4l74.8-55.6c40.3-30.7,205.2-189.9,366.4-354.8l291.6-299.2l-48,153.4c-141.9,460.3-166.9,633-99.7,713.5c13.4,17.3,88.2,59.5,166.9,95.9C6829.6-306.5,7148,65.6,7148,426.2c0,533.2-640.6,1016.6-1563.2,1179.6C5416,1636.5,4821.4,1659.5,4664.2,1642.2z"/></g></g>
</svg>