<?xml version="1.0" encoding="utf-8"?>
<!-- Svg Vector Icons : http://www.sfont.cn -->
<!DOCTYPE svg PUBLIC "-//W3C//DTD SVG 1.1//EN" "http://www.w3.org/Graphics/SVG/1.1/DTD/svg11.dtd">
<svg version="1.1" xmlns="http://www.w3.org/2000/svg" xmlns:xlink="http://www.w3.org/1999/xlink" x="0px" y="0px" viewBox="0 0 1000 1000" enable-background="new 0 0 1000 1000" xml:space="preserve">
<metadata> Svg Vector Icons : http://www.sfont.cn </metadata>
<g><g transform="translate(0.000000,512.000000) scale(0.100000,-0.100000)"><path d="M4529.9,5008.4c-1154.7-118.9-2188.5-608-2999.9-1419.4C751.3,2810.3,287.1,1864.7,124.1,723.5C87.7,462.6,93.4-277.8,135.6-552c84.4-556.2,228.3-1018.5,464.2-1496.1c257-517.9,542.8-914.9,951.4-1317.7c402.8-400.9,774.9-663.6,1290.9-918.7c487.2-237.8,884.2-364.4,1432.8-452.7c308.8-49.9,1043.4-59.5,1329.2-19.2c941.8,136.2,1781.9,492.9,2474.3,1053c987.8,797.9,1611.2,1916.1,1797.2,3218.5c32.6,226.3,32.6,982,0,1208.4c-134.3,939.8-479.5,1758.9-1035.8,2455.1c-282,352.9-723.1,761.5-1081.8,1003.1c-623.4,420.1-1298.5,680.9-2067.7,799.8C5448.6,5018,4775.4,5035.3,4529.9,5008.4z M5498.5,2365.3c888.1-201.4,1549.8-876.6,1758.9-1789.6c44.1-195.6,44.1-717.4,0-913c-222.5-972.5-962.9-1674.5-1918.1-1814.5c-253.2-38.4-425.8-38.4-679,0c-955.2,141.9-1693.6,840.1-1918.1,1814.5c-46,201.4-46,698.2,1.9,916.8c211,984,999.3,1701.3,2006.3,1829.8C4898.2,2426.7,5339.3,2401.8,5498.5,2365.3z"/><path d="M4740.9,2102.6c-836.3-132.3-1480.8-715.4-1684.1-1522.9c-61.4-241.7-59.5-690.5,3.8-928.3c95.9-368.3,268.5-673.2,521.7-930.3c239.8-239.8,471.8-385.5,786.4-489.1c1557.5-519.8,3038.2,961,2518.4,2518.4c-36.5,111.3-94,249.3-126.6,306.9c-285.8,510.2-746.1,867-1290.8,1001.2C5318.2,2096.8,4875.1,2123.7,4740.9,2102.6z M6026,685.1c51.8-49.9,63.3-136.2,24.9-188c-13.4-17.3-312.6-247.4-665.6-512.1c-510.2-381.7-654-479.5-700.1-479.5c-49.9,0-107.4,49.9-408.5,351c-318.4,316.5-351,356.7-351,416.2c0,88.2,63.3,153.4,149.6,153.4c61.4,0,94-26.9,351-282l283.9-280l579.2,433.5C5914.7,767.6,5935.8,777.2,6026,685.1z"/></g></g>
</svg>