<?xml version="1.0" encoding="utf-8"?>
<!-- Svg Vector Icons : http://www.sfont.cn -->
<!DOCTYPE svg PUBLIC "-//W3C//DTD SVG 1.1//EN" "http://www.w3.org/Graphics/SVG/1.1/DTD/svg11.dtd">
<svg version="1.1" xmlns="http://www.w3.org/2000/svg" xmlns:xlink="http://www.w3.org/1999/xlink" x="0px" y="0px" viewBox="0 0 1000 1000" enable-background="new 0 0 1000 1000" xml:space="preserve">
<metadata> Svg Vector Icons : http://www.sfont.cn </metadata>
<g><g transform="translate(0.000000,512.000000) scale(0.100000,-0.100000)"><path d="M4529.9,5008.4c-1154.7-118.9-2188.5-608-2999.9-1419.4C751.3,2810.3,287.1,1864.7,124.1,723.5C87.7,462.6,93.4-277.8,135.6-552c84.4-556.2,228.3-1018.5,464.2-1496.1c257-517.9,542.8-914.9,951.4-1317.7c402.8-400.9,774.9-663.6,1290.9-918.7c487.2-237.8,884.2-364.4,1432.8-452.7c308.8-49.9,1043.4-59.5,1329.2-19.2c941.8,136.2,1781.9,492.9,2474.3,1053c987.8,797.9,1611.2,1916.1,1797.2,3218.5c32.6,226.3,32.6,982,0,1208.4c-134.3,939.8-479.5,1758.9-1035.8,2455.1c-282,352.9-723.1,761.5-1081.8,1003.1c-623.4,420.1-1298.5,680.9-2067.7,799.8C5448.6,5018,4775.4,5035.3,4529.9,5008.4z M3799.1,401.2c95.9-74.8,134.3-155.4,134.3-285.8c1.9-90.1-7.7-122.8-55.6-189.9c-72.9-101.7-165-151.5-282-151.5c-159.2,0-260.8,61.4-324.2,201.4c-44.1,94-46,180.3-7.7,274.3c65.2,155.4,170.7,218.7,347.2,209.1C3705.1,454.9,3743.5,441.5,3799.1,401.2z M5180.1,418.5c105.5-61.4,165-170.7,165-299.2c0-109.3-19.2-155.4-94-235.9c-72.9-80.6-140-109.3-253.2-109.3c-351,0-479.5,464.2-178.4,644.5C4923.1,481.8,5072.7,481.8,5180.1,418.5z M6547.7,443.4c117-44.1,216.7-191.8,216.7-324.2c0-97.8-61.4-216.7-145.8-280c-63.3-49.9-88.2-55.6-209.1-55.6c-120.8,0-145.8,5.8-207.1,53.7c-207.1,159.2-182.2,481.4,47.9,594.6C6323.3,468.4,6469,474.1,6547.7,443.4z"/></g></g>
</svg>