<?xml version="1.0" encoding="utf-8"?>
<!-- Svg Vector Icons : http://www.sfont.cn -->
<!DOCTYPE svg PUBLIC "-//W3C//DTD SVG 1.1//EN" "http://www.w3.org/Graphics/SVG/1.1/DTD/svg11.dtd">
<svg version="1.1" xmlns="http://www.w3.org/2000/svg" xmlns:xlink="http://www.w3.org/1999/xlink" x="0px" y="0px" viewBox="0 0 1000 1000" enable-background="new 0 0 1000 1000" xml:space="preserve">
<metadata> Svg Vector Icons : http://www.sfont.cn </metadata>
<g><g transform="translate(0.000000,512.000000) scale(0.100000,-0.100000)"><path d="M4546.1,5012.8c-1158.2-113.1-2212.9-613.6-3029.8-1440.1C757,2803.8,306.3,1896.8,135.7,794.1c-51.8-339.4-46-1033.6,9.6-1390.2c86.3-544.6,224.4-981.8,466-1465C1088.7-3025.7,1850-3787,2816.5-4266.4c1194.6-594.5,2540.8-678.8,3814.1-241.6c268.5,92,805.4,358.6,1054.7,521.6c406.5,268.5,849.5,671.2,1154.4,1050.8c454.5,567.6,824.6,1353.8,962.6,2046.1C9884.7-483,9900-325.7,9900,123c0,594.5-65.2,1006.7-237.8,1530.2c-243.5,742.1-621.3,1357.7-1177.4,1919.5c-763.2,772.8-1693.2,1242.6-2793.9,1411.3C5453.1,5020.5,4797.3,5035.8,4546.1,5012.8z M5888.4,2518c26.9-34.5,32.6-80.5,32.6-297.2v-257h460.2h460.2v239.7c0,264.6,15.3,322.1,97.8,356.7c65.2,26.8,161.1-3.8,189.8-61.4c11.5-19.2,19.2-145.7,19.2-283.8v-251.2h241.6c239.7,0,299.2-13.4,347.1-74.8c17.2-23,23-268.5,24.9-1004.8V-89.9l-47.9-46l-46-47.9h-613.6h-615.5l-11.5,53.7c-25,111.2-51.8,187.9-80.5,220.5c-26.9,30.7,0,32.6,538.8,32.6h569.5v767v767H6381.2H5307.4v-255v-257l-107.4,55.6c-59.5,28.8-128.5,53.7-153.4,53.7h-46v299.1v299.2l55.6,55.6l55.6,55.6H5363h251.2v251.2v251.2l57.5,57.5c49.9,47.9,69,55.6,120.8,46C5827.1,2564.1,5869.2,2539.1,5888.4,2518z M5921,1196.8v-153.4h-153.4h-153.4v153.4v153.4h153.4H5921V1196.8z M6534.6,1196.8v-153.4h-153.4h-153.4v153.4v153.4h153.4h153.4V1196.8z M7148.3,1196.8v-153.4h-153.4h-153.4v153.4v153.4h153.4h153.4V1196.8z M4971.8,985.9c577.2-155.3,1045.1-629,1200.4-1217.7c57.5-214.8,57.5-607.9,1.9-818.8c-164.9-613.6-646.2-1085.3-1263.7-1236.8c-195.6-46-582.9-42.2-782.4,11.5c-347.1,92-688.4,312.6-903.2,584.9c-780.4,985.6-262.7,2425.7,970.3,2698C4410,1054.9,4749.4,1045.3,4971.8,985.9z M6534.6,583.2V429.8h-153.4h-153.4v153.4v153.4h153.4h153.4V583.2z M7148.3,583.2V429.8h-153.4h-153.4v153.4v153.4h153.4h153.4V583.2z"/><path d="M4243.1,705.9c-72.9-15.3-210.9-67.1-306.8-113.1c-356.7-172.6-598.3-460.2-722.9-853.3c-36.4-120.8-44.1-182.2-42.2-393.1c0-283.8,40.3-437.2,170.7-675c88.2-157.2,335.6-408.4,492.8-500.5c433.4-255,968.4-251.2,1419,9.6c550.4,320.2,797.7,1018.2,581,1641.4c-67.1,195.6-155.3,331.7-326,504.3c-172.6,174.5-333.7,274.2-561.9,347.1C4757,734.7,4440.6,750,4243.1,705.9z M4653.5,475.8c38.4-47.9,40.3-74.8,40.3-508.1v-458.3h412.3c414.2,0,414.2,0,460.2-47.9c30.7-28.8,47.9-69,47.9-105.5c0-36.4-17.3-76.7-47.9-105.5l-46-47.9h-519.7h-519.7l-46,47.9l-47.9,46v563.8c0,542.7,1.9,565.7,40.3,615.5c30.7,38.4,55.6,49.9,113.1,49.9S4622.8,514.2,4653.5,475.8z"/></g></g>
</svg>