<?xml version="1.0" encoding="utf-8"?>
<!-- Svg Vector Icons : http://www.sfont.cn -->
<!DOCTYPE svg PUBLIC "-//W3C//DTD SVG 1.1//EN" "http://www.w3.org/Graphics/SVG/1.1/DTD/svg11.dtd">
<svg version="1.1" xmlns="http://www.w3.org/2000/svg" xmlns:xlink="http://www.w3.org/1999/xlink" x="0px" y="0px" viewBox="0 0 1000 1000" enable-background="new 0 0 1000 1000" xml:space="preserve">
<metadata> Svg Vector Icons : http://www.sfont.cn </metadata>
<g><g transform="translate(0.000000,512.000000) scale(0.100000,-0.100000)"><path d="M4529.9,5008.4c-1154.7-118.9-2188.5-608-2999.9-1419.4C751.3,2810.3,287.1,1864.7,124.1,723.5C87.7,462.6,93.4-277.8,135.6-552c84.4-556.2,228.3-1018.5,464.2-1496.1c257-517.9,542.8-914.9,951.4-1317.7c402.8-400.9,774.9-663.6,1290.9-918.7c487.2-237.8,884.2-364.4,1432.8-452.7c308.8-49.9,1043.4-59.5,1329.2-19.2c941.8,136.2,1781.9,492.9,2474.3,1053c987.8,797.9,1611.2,1916.1,1797.2,3218.5c32.6,226.3,32.6,982,0,1208.4c-134.3,939.8-479.5,1758.9-1035.8,2455.1c-282,352.9-723.1,761.5-1081.8,1003.1c-623.4,420.1-1298.5,680.9-2067.7,799.8C5448.6,5018,4775.4,5035.3,4529.9,5008.4z M5456.3,2374.9c458.4-99.7,840.1-306.9,1166.2-633c326.1-326.1,527.5-696.3,634.9-1166.2c44.1-195.6,44.1-717.4,0-913c-107.4-469.9-308.8-838.2-634.9-1166.2c-328-326.1-696.3-527.5-1166.2-634.9c-195.6-44.1-717.3-44.1-913,0c-469.9,107.4-840.1,308.8-1166.2,634.9c-326.1,326.1-535.1,711.6-633,1162.4c-49.9,226.3-49.9,694.3,0,920.7c97.8,450.7,306.9,836.3,633,1162.3c375.9,374,797.9,581.2,1363.7,667.5C4857.9,2426.7,5320.1,2403.7,5456.3,2374.9z"/><path d="M4750.5,2102.6c-36.4-5.8-140-26.9-228.2-49.9c-719.3-174.5-1269.8-726.9-1461.6-1465.4c-61.4-234-63.3-707.8-1.9-928.3c174.5-646.4,594.6-1143.2,1162.3-1373.3c306.9-124.7,427.7-147.7,778.7-147.7c262.8,0,341.4,5.8,466.1,40.3c755.7,207.1,1267.9,719.3,1475,1475c59.5,216.7,59.5,715.4,0,932.2c-207.1,759.6-728.9,1279.4-1480.8,1475C5318.2,2096.8,4902,2121.7,4750.5,2102.6z M5314.4,1580.8c174.6-80.6,285.8-191.8,372.1-364.4c67.1-138.1,71-155.4,71-329.9c0-174.5-3.8-191.8-72.9-329.9C5584.8,355.2,5398.8,196,5207,150l-53.7-11.5v-437.3c-1.9-468-3.8-483.3-101.7-519.8c-63.3-24.9-132.3-1.9-174.5,59.5c-26.9,36.4-30.7,117-30.7,567.7v523.6l47.9,46c28.8,30.7,67.1,48,107.4,48c118.9,0,216.7,44.1,314.6,143.9c195.6,195.6,193.7,460.3-7.7,648.3c-186.1,174.5-431.6,174.5-617.6,0c-105.5-99.7-157.3-224.4-151.5-366.3c7.7-136.2,3.8-153.4-38.4-195.6c-55.6-55.6-155.4-49.9-212.9,11.5c-42.2,44.1-46,65.2-46,224.4c0,157.3,7.7,189.9,61.4,303.1c99.7,214.8,243.6,341.4,475.7,425.8C4925,1672.9,5153.3,1655.7,5314.4,1580.8z M5105.3-1175.4c30.7-28.8,47.9-69.1,47.9-105.5c0-69.1-72.9-153.4-132.3-153.4c-147.7,0-226.3,161.1-126.6,258.9c28.8,30.7,69.1,47.9,105.5,47.9C5036.2-1127.5,5076.5-1144.7,5105.3-1175.4z"/></g></g>
</svg>