<?xml version="1.0" encoding="utf-8"?>
<!-- Svg Vector Icons : http://www.sfont.cn -->
<!DOCTYPE svg PUBLIC "-//W3C//DTD SVG 1.1//EN" "http://www.w3.org/Graphics/SVG/1.1/DTD/svg11.dtd">
<svg version="1.1" xmlns="http://www.w3.org/2000/svg" xmlns:xlink="http://www.w3.org/1999/xlink" x="0px" y="0px" viewBox="0 0 1000 1000" enable-background="new 0 0 1000 1000" xml:space="preserve">
<metadata> Svg Vector Icons : http://www.sfont.cn </metadata>
<g><g transform="translate(0.000000,512.000000) scale(0.100000,-0.100000)"><path d="M4529.9,5008.4c-1154.7-118.9-2188.5-608-2999.9-1419.4C751.3,2810.3,287.1,1864.7,124.1,723.5C87.7,462.6,93.4-277.8,135.6-552c84.4-556.2,228.3-1018.5,464.2-1496.1c257-517.9,542.8-914.9,951.4-1317.7c402.8-400.9,774.9-663.6,1290.9-918.7c487.2-237.8,884.2-364.4,1432.8-452.7c308.8-49.9,1043.4-59.5,1329.2-19.2c941.8,136.2,1781.9,492.9,2474.3,1053c987.8,797.9,1611.2,1916.1,1797.2,3218.5c32.6,226.3,32.6,982,0,1208.4c-134.3,939.8-479.5,1758.9-1035.8,2455.1c-282,352.9-723.1,761.5-1081.8,1003.1c-623.4,420.1-1298.5,680.9-2067.7,799.8C5448.6,5018,4775.4,5035.3,4529.9,5008.4z M5797.7,1832.1l734.6-744.2l1.9,303.1c0,295.4,1.9,305,48,349.1c74.8,76.7,184.1,61.4,230.2-30.7c23-42.2,28.8-143.9,28.8-491V782.9L7148,474.1c310.7-314.6,331.8-345.2,295.4-441.2c-19.2-46-118.9-92.1-178.4-76.7c-26.8,5.8-134.3,95.9-235.9,197.6l-188,186.1V-931.8c0-1308.1,0-1321.6-74.8-1379.1c-23-19.2-433.5-23-1772.3-24.9H3252.5l-46,47.9l-47.9,46v1287c0,753.8-7.7,1285.1-17.3,1285.1s-84.4-74.8-166.9-165C2767.2-62.9,2682.8-97.5,2583.1,8c-94,101.6-122.8,67.1,1043.4,1250.6c594.6,602.3,1133.6,1145.1,1196.9,1206.5C5017.1,2647.3,4948,2693.3,5797.7,1832.1z"/><path d="M4226.8,1427.4l-761.5-761.5V-682.5v-1346.5h460.3H4386v719.3v721.2l48,46l46,47.9h508.3c278.1,0,521.7-5.8,539-11.5c80.6-30.7,86.3-86.3,86.3-822.8v-700.1h460.3h460.3v1340.7V650.6l-759.6,771.1c-418.1,422-765.3,769.1-773,769.1C4996,2190.8,4646.9,1847.5,4226.8,1427.4z M5251.1,1285.5c132.4-61.4,239.8-168.8,303.1-303c103.6-220.6,51.8-502.5-124.7-679c-120.8-120.8-257-174.5-439.2-174.5c-182.2,1.9-299.2,49.9-423.9,172.6C4246,621.8,4372.6,1157,4808,1316.2C4928.8,1360.3,5118.7,1346.8,5251.1,1285.5z"/><path d="M4875.1,1013.1c-71-30.7-157.3-130.4-174.5-195.6c-46-178.4,82.5-364.4,264.7-385.5c111.2-13.4,207.1,28.8,276.2,120.8c46,59.5,55.6,90.1,55.6,180.3c-1.9,90.2-11.5,122.8-55.6,182.2C5153.3,1030.4,5005.6,1070.6,4875.1,1013.1z"/><path d="M4692.9-1415.2v-613.8h306.9h306.9v613.8v613.8h-306.9h-306.9V-1415.2z"/></g></g>
</svg>