<?xml version="1.0" encoding="utf-8"?>
<!-- Svg Vector Icons : http://www.sfont.cn -->
<!DOCTYPE svg PUBLIC "-//W3C//DTD SVG 1.1//EN" "http://www.w3.org/Graphics/SVG/1.1/DTD/svg11.dtd">
<svg version="1.1" xmlns="http://www.w3.org/2000/svg" xmlns:xlink="http://www.w3.org/1999/xlink" x="0px" y="0px" viewBox="0 0 1000 1000" enable-background="new 0 0 1000 1000" xml:space="preserve">
<metadata> Svg Vector Icons : http://www.sfont.cn </metadata>
<g><g transform="translate(0.000000,512.000000) scale(0.100000,-0.100000)"><path d="M4529.9,5008.4c-1154.7-118.9-2188.5-608-2999.9-1419.4C751.3,2810.3,287.1,1864.7,124.1,723.5C87.7,462.6,93.4-277.8,135.6-552c84.4-556.2,228.3-1018.5,464.2-1496.1c257-517.9,542.8-914.9,951.4-1317.7c402.8-400.9,774.9-663.6,1290.9-918.7c487.2-237.8,884.2-364.4,1432.8-452.7c308.8-49.9,1043.4-59.5,1329.2-19.2c941.8,136.2,1781.9,492.9,2474.3,1053c987.8,797.9,1611.2,1916.1,1797.2,3218.5c32.6,226.3,32.6,982,0,1208.4c-134.3,939.8-479.5,1758.9-1035.8,2455.1c-282,352.9-723.1,761.5-1081.8,1003.1c-623.4,420.1-1298.5,680.9-2067.7,799.8C5448.6,5018,4775.4,5035.3,4529.9,5008.4z M5456.3,2374.9c458.4-99.7,840.1-306.9,1166.2-633c326.1-326.1,527.5-696.3,634.9-1166.2c44.1-195.6,44.1-717.4,0-913c-107.4-469.9-308.8-838.2-634.9-1166.2c-328-326.1-696.3-527.5-1166.2-634.9c-195.6-44.1-717.3-44.1-913,0c-469.9,107.4-840.1,308.8-1166.2,634.9c-333.7,333.8-550.5,740.4-642.6,1210.3c-40.3,197.6-34.5,669.4,9.6,872.7c95.9,448.8,306.9,836.3,633,1162.3c375.9,374,797.9,581.2,1363.7,667.5C4857.9,2426.7,5320.1,2403.7,5456.3,2374.9z"/><path d="M4750.5,2102.6c-36.4-5.8-140-26.9-228.2-49.9c-719.3-174.5-1269.8-726.9-1461.6-1465.4c-61.4-234-63.3-707.8-1.9-928.3c174.5-646.4,594.6-1143.2,1162.3-1373.3c306.9-124.7,427.7-147.7,778.7-147.7c262.8,0,341.4,5.8,466.1,40.3c755.7,207.1,1267.9,719.3,1475,1475c59.5,216.7,59.5,715.4,0,932.2c-207.1,759.6-728.9,1279.4-1480.8,1475C5318.2,2096.8,4902,2121.7,4750.5,2102.6z M5734.4,1765c17.3-21.1,32.6-63.3,32.6-94c0-30.7-59.5-283.9-134.3-565.8c-72.9-280-134.3-514-134.3-517.9c0-3.8,69-7.7,153.4-7.7c140,0,159.2-3.8,203.3-49.9c38.4-36.4,47.9-63.3,42.2-109.3c-9.6-69.1-1235.2-1910.4-1306.2-1960.3c-23-15.3-61.4-28.8-86.3-28.8c-61.4,0-138.1,82.5-138.1,147.7c0,30.7,47.9,272.4,105.5,539s105.5,496.8,105.5,510.2c0,21.1-46,28.8-193.7,34.5c-184.1,5.8-195.6,7.7-239.8,59.5c-53.7,63.3-57.5,120.8-13.4,186.1C4311.2,176.8,5533,1795.7,5563.7,1809.1C5619.3,1832.1,5694.1,1812.9,5734.4,1765z"/><path d="M4907.8,449.2l-351-473.8l82.5-5.7c293.5-17.3,322.2-65.2,245.5-399c-21.1-92.1-36.4-174.5-32.6-186c1.9-9.6,140,186,306.9,435.4l301.1,452.7h-101.7c-61.4,0-117,11.5-143.9,30.7c-82.5,57.5-82.5,101.7-13.4,364.4c36.4,136.2,63.3,247.4,61.4,249.3C5260.7,919.1,5101.5,708.1,4907.8,449.2z"/></g></g>
</svg>