<?xml version="1.0" encoding="utf-8"?>
<!-- Svg Vector Icons : http://www.sfont.cn -->
<!DOCTYPE svg PUBLIC "-//W3C//DTD SVG 1.1//EN" "http://www.w3.org/Graphics/SVG/1.1/DTD/svg11.dtd">
<svg version="1.1" xmlns="http://www.w3.org/2000/svg" xmlns:xlink="http://www.w3.org/1999/xlink" x="0px" y="0px" viewBox="0 0 1000 1000" enable-background="new 0 0 1000 1000" xml:space="preserve">
<metadata> Svg Vector Icons : http://www.sfont.cn </metadata>
<g><g transform="translate(0.000000,512.000000) scale(0.100000,-0.100000)"><path d="M4529.9,5008.4c-1154.7-118.9-2188.5-608-2999.9-1419.4C751.3,2810.3,287.1,1864.7,124.1,723.5C87.7,462.6,93.4-277.8,135.6-552c84.4-556.2,228.3-1018.5,464.2-1496.1c257-517.9,542.8-914.9,951.4-1317.7c402.8-400.9,774.9-663.6,1290.9-918.7c487.2-237.8,884.2-364.4,1432.8-452.7c308.8-49.9,1043.4-59.5,1329.2-19.2c941.8,136.2,1781.9,492.9,2474.3,1053c987.8,797.9,1611.2,1916.1,1797.2,3218.5c32.6,226.3,32.6,982,0,1208.4c-134.3,939.8-479.5,1758.9-1035.8,2455.1c-282,352.9-723.1,761.5-1081.8,1003.1c-623.4,420.1-1298.5,680.9-2067.7,799.8C5448.6,5018,4775.4,5035.3,4529.9,5008.4z M5354.6,1912.7c786.4-211,1208.4-1058.8,937.9-1885.5c-109.3-333.7-245.5-573.5-680.9-1193c-166.9-237.9-351-514-408.5-611.9c-130.4-220.6-157.3-251.3-220.6-251.3c-78.6,0-128.5,47.9-207.2,197.6c-40.3,76.7-207.1,341.4-372.1,590.8c-558.2,842-690.5,1112.5-755.7,1551.7c-55.6,356.8-23,586.9,118.9,882.3c74.8,155.4,113.2,205.2,262.8,354.8c224.4,222.5,445,341.4,736.5,393.2C4894.3,1966.4,5218.5,1949.1,5354.6,1912.7z"/><path d="M4756.2,1625c-282-61.4-563.9-278.1-700.1-539c-101.7-193.7-136.2-358.7-124.7-583.1c23-391.3,159.2-696.2,648.3-1467.3c174.5-274.3,333.7-525.6,354.8-560.1l36.4-61.4L5364.2-997C5909-181.9,6045.2,105.8,6068.2,493.3C6112.3,1226,5469.7,1780.3,4756.2,1625z M5203.1,986.3c161.1-82.5,245.5-222.5,245.5-406.6c0-149.6-46-251.3-161.1-349.1c-220.6-189.9-565.8-118.9-702,141.9c-42.2,80.6-53.7,237.8-26.9,341.4s184.1,266.6,287.7,301.1C4938.4,1047.6,5113,1032.3,5203.1,986.3z"/><path d="M4894.3,685.1c-95.9-94-28.8-258.9,105.5-258.9c69,0,153.4,72.9,153.4,134.3c0,55.6-49.9,145.8-86.3,161.1C5003.7,744.6,4940.4,731.1,4894.3,685.1z"/></g></g>
</svg>