<?xml version="1.0" encoding="utf-8"?>
<!-- Svg Vector Icons : http://www.sfont.cn -->
<!DOCTYPE svg PUBLIC "-//W3C//DTD SVG 1.1//EN" "http://www.w3.org/Graphics/SVG/1.1/DTD/svg11.dtd">
<svg version="1.1" xmlns="http://www.w3.org/2000/svg" xmlns:xlink="http://www.w3.org/1999/xlink" x="0px" y="0px" viewBox="0 0 1000 1000" enable-background="new 0 0 1000 1000" xml:space="preserve">
<metadata> Svg Vector Icons : http://www.sfont.cn </metadata>
<g><g transform="translate(0.000000,512.000000) scale(0.100000,-0.100000)"><path d="M4529.9,5008.4c-1154.7-118.9-2188.5-608-2999.9-1419.4C751.3,2810.3,287.1,1864.7,124.1,723.5C87.7,462.6,93.4-277.8,135.6-552c84.4-556.2,228.3-1018.5,464.2-1496.1c257-517.9,542.8-914.9,951.4-1317.7c402.8-400.9,774.9-663.6,1290.9-918.7c487.2-237.8,884.2-364.4,1432.8-452.7c308.8-49.9,1043.4-59.5,1329.2-19.2c941.8,136.2,1781.9,492.9,2474.3,1053c987.8,797.9,1611.2,1916.1,1797.2,3218.5c32.6,226.3,32.6,982,0,1208.4c-134.3,939.8-479.5,1758.9-1035.8,2455.1c-282,352.9-723.1,761.5-1081.8,1003.1c-623.4,420.1-1298.5,680.9-2067.7,799.8C5448.6,5018,4775.4,5035.3,4529.9,5008.4z M5427.5,2503.4c234-82.5,362.5-163,544.7-345.3c126.6-126.6,172.6-189.9,243.6-335.7c122.7-247.4,151.5-377.9,153.4-667.5c1.9-193.7-7.7-272.4-42.2-402.8c-97.8-360.6-274.3-684.8-711.6-1302.4c-147.7-207.1-320.3-466.1-387.5-577.3c-145.8-245.5-182.2-287.7-247.4-287.7c-76.7,0-126.6,48-205.2,197.6c-40.3,76.7-191.8,320.3-339.5,540.9c-552.4,834.4-684.8,1091.4-771.1,1496.1c-80.6,375.9-49.9,675.2,101.7,987.8c74.8,155.4,113.2,207.1,262.8,354.8c301.1,299.2,596.5,416.2,1018.5,404.7C5222.3,2561,5287.5,2551.4,5427.5,2503.4z M3820.2-312.3c57.5-55.6,65.2-161.1,15.3-205.2c-19.2-15.3-107.4-67.1-195.6-113.2c-370.2-189.9-550.5-468-454.6-698.2c92.1-220.6,469.9-460.3,913-583.1c310.7-84.4,491-105.5,901.5-105.5c410.4,0,590.8,21.1,901.5,105.5c443.1,122.8,820.9,362.5,913,583.1c97.8,237.8-88.2,514-479.5,709.7c-99.7,49.9-193.7,103.6-207.1,118.9c-40.3,47.9-28.8,159.2,21.1,199.5c63.3,51.8,145.8,46,287.7-21.1c508.3-241.7,774.9-623.4,692.4-995.5c-97.8-443.1-594.6-794.1-1329.2-939.8c-796-159.2-1707.1-67.1-2284.4,228.3c-193.7,99.7-310.7,186.1-433.5,320.3c-429.6,469.9-228.2,1049.2,481.4,1386.8C3712.8-252.8,3758.8-250.9,3820.2-312.3z"/><path d="M4742.8,2236.8c-297.3-71-565.8-289.6-700.1-567.7c-103.6-214.8-132.3-393.2-101.7-638.7c44.1-349.1,172.6-648.3,502.5-1160.4c157.3-247.4,408.5-646.4,496.8-790.2l30.7-51.8l393.2,586.9c583.1,872.7,698.2,1129.7,700.1,1559.4c0,241.7-23,339.5-132.4,544.7c-124.7,237.8-410.5,454.6-684.8,519.8C5095.7,2273.3,4892.4,2273.3,4742.8,2236.8z M5136,1630.7c97.8-28.8,218.7-132.3,270.5-234c88.2-165,46-400.9-94-533.2c-186.1-176.5-445-172.6-629.1,13.4c-188,188-195.6,433.5-15.3,625.3C4794.6,1638.4,4961.5,1684.4,5136,1630.7z"/><path d="M4894.3,1298.9c-95.9-94-28.8-258.9,105.5-258.9c36.4,0,76.7,17.3,105.5,47.9c30.7,28.8,47.9,69.1,47.9,105.5c0,36.4-17.3,76.7-47.9,105.5c-28.8,30.7-69.1,47.9-105.5,47.9C4963.4,1346.8,4923.1,1329.6,4894.3,1298.9z"/></g></g>
</svg>