<?xml version="1.0" encoding="utf-8"?>
<!-- Svg Vector Icons : http://www.sfont.cn -->
<!DOCTYPE svg PUBLIC "-//W3C//DTD SVG 1.1//EN" "http://www.w3.org/Graphics/SVG/1.1/DTD/svg11.dtd">
<svg version="1.1" xmlns="http://www.w3.org/2000/svg" xmlns:xlink="http://www.w3.org/1999/xlink" x="0px" y="0px" viewBox="0 0 1000 1000" enable-background="new 0 0 1000 1000" xml:space="preserve">
<metadata> Svg Vector Icons : http://www.sfont.cn </metadata>
<g><g transform="translate(0.000000,512.000000) scale(0.100000,-0.100000)"><path d="M4529.9,5008.4c-1154.7-118.9-2188.5-608-2999.9-1419.4C751.3,2810.3,287.1,1864.7,124.1,723.5C87.7,462.6,93.4-277.8,135.6-552c84.4-556.2,228.3-1018.5,464.2-1496.1c257-517.9,542.8-914.9,951.4-1317.7c402.8-400.9,774.9-663.6,1290.9-918.7c487.2-237.8,884.2-364.4,1432.8-452.7c308.8-49.9,1043.4-59.5,1329.2-19.2c941.8,136.2,1781.9,492.9,2474.3,1053c987.8,797.9,1611.2,1916.1,1797.2,3218.5c32.6,226.3,32.6,982,0,1208.4c-134.3,939.8-479.5,1758.9-1035.8,2455.1c-282,352.9-723.1,761.5-1081.8,1003.1c-623.4,420.1-1298.5,680.9-2067.7,799.8C5448.6,5018,4775.4,5035.3,4529.9,5008.4z M5872.5,992c30.7-28.8,47.9-69.1,47.9-105.5c0-36.4-17.3-76.7-47.9-105.5l-46-48h-826.7h-826.7l-46,48c-30.7,28.8-48,69-48,105.5c0,36.4,17.3,76.7,48,105.5l46,47.9h826.7h826.7L5872.5,992z M5872.5,71.3c30.7-28.8,47.9-69.1,47.9-105.5c0-36.4-17.3-76.7-47.9-105.5l-46-47.9h-826.7h-826.7l-46,47.9c-30.7,28.8-48,69-48,105.5c0,36.4,17.3,76.7,48,105.5l46,48h826.7h826.7L5872.5,71.3z M5872.5-849.3c30.7-28.8,47.9-69.1,47.9-105.5c0-36.5-17.3-76.7-47.9-105.5l-46-47.9h-826.7h-826.7l-46,47.9c-30.7,28.8-48,69-48,105.5c0,36.4,17.3,76.7,48,105.5l46,47.9h826.7h826.7L5872.5-849.3z"/></g></g>
</svg>