<?xml version="1.0" encoding="utf-8"?>
<!-- Svg Vector Icons : http://www.sfont.cn -->
<!DOCTYPE svg PUBLIC "-//W3C//DTD SVG 1.1//EN" "http://www.w3.org/Graphics/SVG/1.1/DTD/svg11.dtd">
<svg version="1.1" xmlns="http://www.w3.org/2000/svg" xmlns:xlink="http://www.w3.org/1999/xlink" x="0px" y="0px" viewBox="0 0 1000 1000" enable-background="new 0 0 1000 1000" xml:space="preserve">
<metadata> Svg Vector Icons : http://www.sfont.cn </metadata>
<g><g transform="translate(0.000000,512.000000) scale(0.100000,-0.100000)"><path d="M4529.9,5008.4c-1154.7-118.9-2188.5-608-2999.9-1419.4C751.3,2810.3,287.1,1864.7,124.1,723.5C87.7,462.6,93.4-277.8,135.6-552c84.4-556.2,228.3-1018.5,464.2-1496.1c257-517.9,542.8-914.9,951.4-1317.7c402.8-400.9,774.9-663.6,1290.9-918.7c487.2-237.8,884.2-364.4,1432.8-452.7c308.8-49.9,1043.4-59.5,1329.2-19.2c941.8,136.2,1781.9,492.9,2474.3,1053c987.8,797.9,1611.2,1916.1,1797.2,3218.5c32.6,226.3,32.6,982,0,1208.4c-134.3,939.8-479.5,1758.9-1035.8,2455.1c-282,352.9-723.1,761.5-1081.8,1003.1c-623.4,420.1-1298.5,680.9-2067.7,799.8C5448.6,5018,4775.4,5035.3,4529.9,5008.4z M5958.8,2823.7c422-107.4,826.7-377.9,1095.2-732.7c251.3-335.7,400.9-753.8,400.9-1127.8c0-176.5-32.6-230.2-136.2-230.2c-122.8,0-170.7,72.9-170.7,260.9c0,218.7-92.1,519.8-232.1,759.6c-103.6,176.5-351,433.5-533.2,554.3c-232.1,151.5-577.3,266.6-803.7,266.6c-149.6,0-234,32.6-262.8,99.7c-32.6,80.6-3.8,164.9,69,195.6C5458.2,2900.5,5749.8,2877.5,5958.8,2823.7z M5847.6,2304c598.4-166.9,1024.2-688.6,1081.8-1325.4c9.6-124.7,7.7-145.8-30.7-191.8c-32.6-42.2-57.5-53.7-115.1-53.7c-111.3,0-145.8,48-161.1,224.4c-28.8,310.7-157.3,577.3-375.9,778.7c-199.5,186.1-439.2,289.6-723.1,314.6c-184.1,15.3-230.2,55.6-218.7,188c1.9,21.1,26.9,59.5,53.7,84.4c47.9,42.2,61.4,44.1,201.4,30.7C5642.4,2348.1,5772.8,2325.1,5847.6,2304z M5680.7,1797.6c337.6-88.2,602.3-352.9,690.5-690.5c42.2-166.9,38.4-264.7-15.3-328c-32.6-36.4-63.3-51.8-107.4-51.8c-94,0-140,57.5-157.3,205.2c-21.1,165-94,314.6-201.4,414.3c-109.3,101.7-220.6,151.5-381.7,170.7c-88.2,9.6-138.1,26.9-166.9,55.6c-55.6,53.7-53.7,145.8,3.8,205.2C5398.8,1835.9,5506.2,1841.7,5680.7,1797.6z M4999.8,1500.3v-153.4h-460.3h-460.3V-187.6v-1534.5h920.7h920.7v1074.1V426.2h153.4h153.4V-753.4V-1935l-47.9-46l-46-47.9H4999.8H3866.2l-46,47.9l-47.9,46v1747.4v1747.3l47.9,46l46,47.9H4434h565.8V1500.3z M5676.9,1262.5c209.1-88.2,224.4-383.6,24.9-479.5c-184.1-86.3-375.9,32.6-375.9,234c0,109.3,47.9,186.1,143.9,234C5559.9,1297,5594.4,1298.9,5676.9,1262.5z"/></g></g>
</svg>