<?xml version="1.0" encoding="utf-8"?>
<!-- Svg Vector Icons : http://www.sfont.cn -->
<!DOCTYPE svg PUBLIC "-//W3C//DTD SVG 1.1//EN" "http://www.w3.org/Graphics/SVG/1.1/DTD/svg11.dtd">
<svg version="1.1" xmlns="http://www.w3.org/2000/svg" xmlns:xlink="http://www.w3.org/1999/xlink" x="0px" y="0px" viewBox="0 0 1000 1000" enable-background="new 0 0 1000 1000" xml:space="preserve">
<metadata> Svg Vector Icons : http://www.sfont.cn </metadata>
<g><g transform="translate(0.000000,512.000000) scale(0.100000,-0.100000)"><path d="M4529.9,5008.4c-1154.7-118.9-2188.5-608-2999.9-1419.4C751.3,2810.3,287.1,1864.7,124.1,723.5C87.7,462.6,93.4-277.8,135.6-552c84.4-556.2,228.3-1018.5,464.2-1496.1c257-517.9,542.8-914.9,951.4-1317.7c402.8-400.9,774.9-663.6,1290.9-918.7c487.2-237.8,884.2-364.4,1432.8-452.7c308.8-49.9,1043.4-59.5,1329.2-19.2c941.8,136.2,1781.9,492.9,2474.3,1053c987.8,797.9,1611.2,1916.1,1797.2,3218.5c32.6,226.3,32.6,982,0,1208.4c-134.3,939.8-479.5,1758.9-1035.8,2455.1c-282,352.9-723.1,761.5-1081.8,1003.1c-623.4,420.1-1298.5,680.9-2067.7,799.8C5448.6,5018,4775.4,5035.3,4529.9,5008.4z M6179.4,1912.7l47.9-46V119.3v-1747.4l-47.9-46l-46-47.9H4999.8H3866.2l-46,47.9l-47.9,46V119.3v1747.4l47.9,46l46,48h1133.6h1133.6L6179.4,1912.7z M3254.4,1241.3l201.4-201.4l-153.4-153.4l-153.4-153.4l153.4-153.4l153.4-153.4l-153.4-153.4l-153.4-153.4l153.4-153.4l153.4-153.4l-207.1-205.2L3043.4-600l-105.5,105.5l-105.5,103.6l99.7,101.7l99.7,101.7L2880.4-34.2l-153.4,153.4l153.4,153.4l153.4,153.4l-153.4,153.4l-153.4,153.4l153.4,153.4l153.4,153.4l-101.7,99.7l-99.7,101.7l99.7,99.7c55.6,55.6,105.5,101.7,111.2,101.7C3049.1,1442.7,3143.1,1352.6,3254.4,1241.3z M7065.6,1343l101.7-99.7l-99.7-101.7l-99.7-101.7l151.5-153.4l153.4-153.4l-153.4-153.4l-153.4-153.4l153.4-153.4l153.4-153.4L7119.3-34.2l-151.5-153.4l99.7-101.7l99.7-101.7l-105.5-103.6L6956.2-600L6751-392.8l-207.1,205.2l153.4,153.4l153.4,153.4l-153.4,153.4l-153.4,153.4l153.4,153.4l153.4,153.4l-153.4,153.4L6543.8,1040l201.4,201.4c111.3,111.2,205.2,201.4,211,201.4C6960.1,1442.7,7009.9,1398.6,7065.6,1343z"/><path d="M4079.1,119.3v-1534.4h920.7h920.7V119.3v1534.4h-920.7h-920.7V119.3z"/></g></g>
</svg>