<?xml version="1.0" encoding="utf-8"?>
<!-- Svg Vector Icons : http://www.sfont.cn -->
<!DOCTYPE svg PUBLIC "-//W3C//DTD SVG 1.1//EN" "http://www.w3.org/Graphics/SVG/1.1/DTD/svg11.dtd">
<svg version="1.1" xmlns="http://www.w3.org/2000/svg" xmlns:xlink="http://www.w3.org/1999/xlink" x="0px" y="0px" viewBox="0 0 1000 1000" enable-background="new 0 0 1000 1000" xml:space="preserve">
<metadata> Svg Vector Icons : http://www.sfont.cn </metadata>
<g><g transform="translate(0.000000,512.000000) scale(0.100000,-0.100000)"><path d="M4529.9,5008.4c-1154.7-118.9-2188.5-608-2999.9-1419.4C751.3,2810.3,287.1,1864.7,124.1,723.5C87.7,462.6,93.4-277.8,135.6-552c84.4-556.2,228.3-1018.5,464.2-1496.1c257-517.9,542.8-914.9,951.4-1317.7c402.8-400.9,774.9-663.6,1290.9-918.7c487.2-237.8,884.2-364.4,1432.8-452.7c308.8-49.9,1043.4-59.5,1329.2-19.2c941.8,136.2,1781.9,492.9,2474.3,1053c987.8,797.9,1611.2,1916.1,1797.2,3218.5c32.6,226.3,32.6,982,0,1208.4c-134.3,939.8-479.5,1758.9-1035.8,2455.1c-282,352.9-723.1,761.5-1081.8,1003.1c-623.4,420.1-1298.5,680.9-2067.7,799.8C5448.6,5018,4775.4,5035.3,4529.9,5008.4z M5517.7,2518.8c481.4-109.3,855.4-316.5,1210.3-671.3c111.3-111.3,245.5-268.5,299.2-347.2c648.3-968.6,546.7-2221.1-247.4-3061.2c-713.5-751.9-1804.9-978.2-2754.3-567.7c-264.7,115.1-485.3,260.8-702,468C2937.9-1296.2,2702-870.4,2588.8-341c-47.9,230.2-47.9,696.2,1.9,930.3c99.7,479.5,308.8,876.6,642.5,1225.6c416.2,431.6,880.4,659.8,1526.8,748C4894.3,2582.1,5360.4,2555.2,5517.7,2518.8z"/><path d="M4865.6,2234.9c0-36.4,268.5-1989,274.3-1994.8c11.5-9.6,1941.1-596.5,1946.8-590.8c21.1,21.1,44.1,178.4,53.7,374c55.6,1081.8-721.2,2040.8-1797.2,2215.4c-99.7,15.3-247.4,28.8-328,28.8C4884.7,2267.5,4865.6,2263.7,4865.6,2234.9z"/><path d="M4395.6,2154.4c-600.3-176.5-1141.2-650.2-1371.4-1206.5c-120.8-287.7-159.2-479.5-161.1-809.4c0-178.4,7.7-343.3,23-412.4c124.7-581.2,452.7-1079.9,909.2-1382.9c964.8-642.5,2209.6-427.7,2907.8,500.6c103.6,140,285.8,481.4,266.6,502.5c-7.7,5.8-471.9,151.5-1033.8,324.1C4917.3-16.9,4846.4,10,4846.4,88.6c0,11.5-65.2,487.2-143.9,1054.9c-78.6,569.7-143.9,1037.7-143.9,1041.5C4558.7,2196.5,4508.8,2187,4395.6,2154.4z"/></g></g>
</svg>