<?xml version="1.0" encoding="utf-8"?>
<!-- Svg Vector Icons : http://www.sfont.cn -->
<!DOCTYPE svg PUBLIC "-//W3C//DTD SVG 1.1//EN" "http://www.w3.org/Graphics/SVG/1.1/DTD/svg11.dtd">
<svg version="1.1" xmlns="http://www.w3.org/2000/svg" xmlns:xlink="http://www.w3.org/1999/xlink" x="0px" y="0px" viewBox="0 0 1000 1000" enable-background="new 0 0 1000 1000" xml:space="preserve">
<metadata> Svg Vector Icons : http://www.sfont.cn </metadata>
<g><g transform="translate(0.000000,512.000000) scale(0.100000,-0.100000)"><path d="M4529.9,5008.4c-1154.7-118.9-2188.5-608-2999.9-1419.4C751.3,2810.3,287.1,1864.7,124.1,723.5C87.7,462.6,93.4-277.8,135.6-552c84.4-556.2,228.3-1018.5,464.2-1496.1c257-517.9,542.8-914.9,951.4-1317.7c402.8-400.9,774.9-663.6,1290.9-918.7c487.2-237.8,884.2-364.4,1432.8-452.7c308.8-49.9,1043.4-59.5,1329.2-19.2c941.8,136.2,1781.9,492.9,2474.3,1053c987.8,797.9,1611.2,1916.1,1797.2,3218.5c32.6,226.3,32.6,982,0,1208.4c-134.3,939.8-479.5,1758.9-1035.8,2455.1c-282,352.9-723.1,761.5-1081.8,1003.1c-623.4,420.1-1298.5,680.9-2067.7,799.8C5448.6,5018,4775.4,5035.3,4529.9,5008.4z M5105.3,2373l47.9-46v-673.2V980.5l-47.9-46c-28.8-30.7-69.1-48-105.5-48c-36.4,0-76.7,17.3-105.5,48l-47.9,46v673.2V2327l47.9,46c28.8,30.7,69.1,47.9,105.5,47.9C5036.2,2421,5076.5,2403.7,5105.3,2373z M4497.3,1979.8c97.8-92.1,61.4-211-80.6-266.6c-172.6-67.1-410.5-193.7-523.6-278.1c-324.2-245.5-569.7-613.8-680.9-1022.3c-59.5-222.5-59.5-661.7,1.9-888.1c95.9-360.6,266.6-650.2,519.8-888.1c247.4-234,527.5-385.5,855.5-468c182.2-44.1,638.7-44.1,820.9,0c339.5,84.4,617.6,239.8,865.1,483.4c197.6,193.7,260.8,280,375.9,510.2c128.5,258.9,176.5,473.8,178.4,803.7c0,243.6-5.8,301.1-51.8,466.1c-84.4,308.8-226.3,562-439.2,792.2c-195.6,207.1-441.2,368.3-728.9,477.6c-120.8,44.1-153.4,84.4-145.8,174.5c3.8,51.8,21.1,82.5,59.5,111.2c47.9,34.5,59.5,36.4,141.9,13.4c260.8-69.1,615.7-285.8,849.7-519.8c840.1-842,836.3-2205.8-9.6-3040.1c-450.7-445-1110.6-677.1-1722.4-609.9c-1007,115.1-1791.5,888.1-1914.2,1891.2c-117,955.2,466.1,1914.2,1373.3,2251.8C4386,2027.8,4443.6,2027.8,4497.3,1979.8z"/></g></g>
</svg>