<?xml version="1.0" encoding="utf-8"?>
<!-- Svg Vector Icons : http://www.sfont.cn -->
<!DOCTYPE svg PUBLIC "-//W3C//DTD SVG 1.1//EN" "http://www.w3.org/Graphics/SVG/1.1/DTD/svg11.dtd">
<svg version="1.1" xmlns="http://www.w3.org/2000/svg" xmlns:xlink="http://www.w3.org/1999/xlink" x="0px" y="0px" viewBox="0 0 1000 1000" enable-background="new 0 0 1000 1000" xml:space="preserve">
<metadata> Svg Vector Icons : http://www.sfont.cn </metadata>
<g><g transform="translate(0.000000,512.000000) scale(0.100000,-0.100000)"><path d="M4529.9,5008.4c-1154.7-118.9-2188.5-608-2999.9-1419.4C751.3,2810.3,287.1,1864.7,124.1,723.5C87.7,462.6,93.4-277.8,135.6-552c84.4-556.2,228.3-1018.5,464.2-1496.1c257-517.9,542.8-914.9,951.4-1317.7c402.8-400.9,774.9-663.6,1290.9-918.7c487.2-237.8,884.2-364.4,1432.8-452.7c308.8-49.9,1043.4-59.5,1329.2-19.2c941.8,136.2,1781.9,492.9,2474.3,1053c987.8,797.9,1611.2,1916.1,1797.2,3218.5c32.6,226.3,32.6,982,0,1208.4c-134.3,939.8-479.5,1758.9-1035.8,2455.1c-282,352.9-723.1,761.5-1081.8,1003.1c-623.4,420.1-1298.5,680.9-2067.7,799.8C5448.6,5018,4775.4,5035.3,4529.9,5008.4z M5185.9,2016.2c362.5-49.9,698.2-212.9,955.2-468c247.4-245.5,397.1-512.1,466.1-834.4l34.5-155.4l55.6,61.4c63.3,65.2,143.9,113.2,191.8,113.2c17.3,0,57.5-24.9,88.2-55.6c95.9-97.8,80.6-134.3-149.6-370.2C6607.1,84.8,6536.2,33,6469,50.2c-21.1,7.7-141.9,109.3-264.7,228.3C5997.2,479.9,5978,502.9,5978,566.2c0,153.4,163,201.4,283.9,86.3l65.2-63.3l-13.4,67.1c-7.7,36.4-34.5,122.8-59.5,189.9c-155.4,416.2-517.9,730.8-962.9,840.1c-151.5,36.4-487.2,40.3-627.2,7.7c-481.4-115.1-868.9-468-1016.6-916.8C3597.7,618,3475,568.1,3379.1,665.9c-59.5,59.5-59.5,111.2,0,272.4c218.7,579.2,734.6,985.9,1367.6,1077.9C4905.8,2039.3,5017.1,2039.3,5185.9,2016.2z M3797.2-51.4c241.7-243.6,258.9-278.1,184.1-374c-57.5-72.9-159.2-69-241.7,11.5c-72.9,70.9-78.6,53.7-32.6-101.7c71-237.8,253.2-508.3,445-659.8c262.8-207.1,542.8-305,876.6-305c258.9,0,397,34.5,642.5,155.4c299.2,145.8,550.5,429.6,659.8,742.3c24.9,71,61.4,145.8,78.6,165c49.9,55.6,153.4,49.9,211-9.6c57.5-55.6,59.5-86.3,9.6-228.3c-235.9-688.6-863.1-1129.7-1601.6-1129.7c-671.3,0-1242.9,364.4-1522.9,968.6c-72.9,155.4-136.2,368.3-136.2,454.6c0,40.3-5.8,38.4-88.2-34.5c-49.9-44.1-103.6-80.6-120.8-80.6c-72.9-5.8-109.3,7.7-149.6,51.8c-80.6,90.2-63.3,128.5,172.6,368.3c117,118.9,232.1,226.3,253.2,235.9C3513.3,211.3,3572.8,174.9,3797.2-51.4z"/></g></g>
</svg>