<?xml version="1.0" encoding="utf-8"?>
<!-- Svg Vector Icons : http://www.sfont.cn -->
<!DOCTYPE svg PUBLIC "-//W3C//DTD SVG 1.1//EN" "http://www.w3.org/Graphics/SVG/1.1/DTD/svg11.dtd">
<svg version="1.1" xmlns="http://www.w3.org/2000/svg" xmlns:xlink="http://www.w3.org/1999/xlink" x="0px" y="0px" viewBox="0 0 1000 1000" enable-background="new 0 0 1000 1000" xml:space="preserve">
<metadata> Svg Vector Icons : http://www.sfont.cn </metadata>
<g><g transform="translate(0.000000,512.000000) scale(0.100000,-0.100000)"><path d="M4529.9,5008.4c-1154.7-118.9-2188.5-608-2999.9-1419.4C751.3,2810.3,287.1,1864.7,124.1,723.5C87.7,462.6,93.4-277.8,135.6-552c84.4-556.2,228.3-1018.5,464.2-1496.1c257-517.9,542.8-914.9,951.4-1317.7c402.8-400.9,774.9-663.6,1290.9-918.7c487.2-237.8,884.2-364.4,1432.8-452.7c308.8-49.9,1043.4-59.5,1329.2-19.2c941.8,136.2,1781.9,492.9,2474.3,1053c987.8,797.9,1611.2,1916.1,1797.2,3218.5c32.6,226.3,32.6,982,0,1208.4c-134.3,939.8-479.5,1758.9-1035.8,2455.1c-282,352.9-723.1,761.5-1081.8,1003.1c-623.4,420.1-1298.5,680.9-2067.7,799.8C5448.6,5018,4775.4,5035.3,4529.9,5008.4z M5337.4,2238.7c404.7-69.1,773-243.6,1072.2-506.4l115.1-101.7l9.6,128.5c7.7,105.5,17.3,134.3,55.6,165c61.4,49.9,147.7,46,203.3-11.5c47.9-46,47.9-49.9,47.9-412.4c0-492.9,32.6-460.3-460.3-460.3c-362.5,0-366.3,0-412.4,47.9c-63.3,61.4-63.3,149.6,0,211c42.2,44.1,61.4,47.9,224.4,47.9l178.4,1.9l-126.6,120.8c-159.2,153.4-397,299.2-606.1,375.9C4589.4,2225.3,3476.9,1623,3202.6,525.9c-46-178.4-44.1-634.9,0-817.1c90.2-356.8,239.8-621.4,502.5-884.2c264.7-262.8,533.2-416.2,884.2-502.5c189.9-46,602.3-46,803.7,1.9c362.5,82.5,634.9,234,901.5,500.6C6657-812.9,6812.4-448.5,6835.4,86.7c11.5,253.2,13.4,266.6,59.5,301.1c47.9,38.4,109.3,47.9,166.9,26.8c57.5-23,86.3-115.1,86.3-280c-1.9-661.7-299.2-1285.1-807.5-1689.8c-255.1-205.2-598.4-362.5-947.5-439.2c-149.6-30.7-636.8-30.7-786.4,0C3816.4-1823.7,3216-1300.1,2966.7-561.6c-226.3,669.4-103.6,1411.7,328,1985.2C3762.7,2043.1,4577.8,2369.2,5337.4,2238.7z M5141.7,556.6c105.5-30.7,264.7-189.9,295.4-295.4c53.7-180.3,15.3-324.1-120.8-458.4c-193.7-195.7-439.2-195.7-633,0c-195.6,193.7-195.6,439.2,0,632.9C4817.6,571.9,4961.5,608.4,5141.7,556.6z"/><path d="M4894.3,224.8c-95.9-94-28.8-258.9,105.5-258.9c78.6,0,153.4,74.8,153.4,153.4c0,36.4-17.3,76.7-47.9,105.5c-28.8,30.7-69.1,47.9-105.5,47.9C4963.4,272.7,4923.1,255.5,4894.3,224.8z"/></g></g>
</svg>