<?xml version="1.0" encoding="utf-8"?>
<!-- Svg Vector Icons : http://www.sfont.cn -->
<!DOCTYPE svg PUBLIC "-//W3C//DTD SVG 1.1//EN" "http://www.w3.org/Graphics/SVG/1.1/DTD/svg11.dtd">
<svg version="1.1" xmlns="http://www.w3.org/2000/svg" xmlns:xlink="http://www.w3.org/1999/xlink" x="0px" y="0px" viewBox="0 0 1000 1000" enable-background="new 0 0 1000 1000" xml:space="preserve">
<metadata> Svg Vector Icons : http://www.sfont.cn </metadata>
<g><g transform="translate(0.000000,512.000000) scale(0.100000,-0.100000)"><path d="M4529.9,5008.4c-1154.7-118.9-2188.5-608-2999.9-1419.4C751.3,2810.3,287.1,1864.7,124.1,723.5C87.7,462.6,93.4-277.8,135.6-552c84.4-556.2,228.3-1018.5,464.2-1496.1c257-517.9,542.8-914.9,951.4-1317.7c402.8-400.9,774.9-663.6,1290.9-918.7c487.2-237.8,884.2-364.4,1432.8-452.7c308.8-49.9,1043.4-59.5,1329.2-19.2c941.8,136.2,1781.9,492.9,2474.3,1053c987.8,797.9,1611.2,1916.1,1797.2,3218.5c32.6,226.3,32.6,982,0,1208.4c-134.3,939.8-479.5,1758.9-1035.8,2455.1c-282,352.9-723.1,761.5-1081.8,1003.1c-623.4,420.1-1298.5,680.9-2067.7,799.8C5448.6,5018,4775.4,5035.3,4529.9,5008.4z M4641.1,1803.3c149.6-86.3,291.6-172.6,314.6-193.7c86.3-76.7,76.7-113.2-99.7-423.9c-188-331.8-235.9-385.5-324.2-368.3c-143.9,28.8-161.1,153.4-49.9,337.6c44.1,71,67.1,128.5,55.6,132.3c-36.4,11.5-293.5-128.5-393.2-216.7c-115.1-99.7-218.7-251.3-274.3-393.2c-23-53.7-36.4-97.8-32.6-97.8c3.8,0,67.1,34.5,141.9,76.7c72.9,42.2,155.4,76.7,184.1,76.7c115.1,0,191.8-165,111.3-245.5c-55.6-55.6-609.9-368.3-656-368.3c-23,0-55.6,7.7-74.8,19.2c-46,23-385.5,615.7-385.5,669.4c0,65.2,30.7,109.3,95.9,136.2c86.3,36.4,151.5,0,228.2-126.6l63.3-105.5l86.3,172.6c140,282,391.3,523.6,673.2,648.3l107.4,46l-94,55.6c-113.2,65.2-143.9,103.6-143.9,176.5c0,69,76.7,149.6,143.9,149.6C4345.8,1960.6,4491.5,1889.6,4641.1,1803.3z M7100.1,1912.7l48-46v-1287v-1287l-48-46l-46-48h-826.7h-826.7l-46,48l-47.9,46v1287v1287l47.9,46l46,48h826.7h826.7L7100.1,1912.7z M4999.8-341v-153.4h-767.2h-767.2v-613.8v-613.8h1074.1h1074.1v306.9v306.9H5767h153.4v-412.4c0-414.3,0-414.3-47.9-460.3l-46-47.9h-1287h-1287l-46,47.9l-47.9,46v826.7v826.7l47.9,46l46,48h874.6h872.7V-341z"/><path d="M5613.6,579.6V-494.5h613.8h613.8V579.6v1074.1h-613.8h-613.8V579.6z"/></g></g>
</svg>