<?xml version="1.0" encoding="utf-8"?>
<!-- Svg Vector Icons : http://www.sfont.cn -->
<!DOCTYPE svg PUBLIC "-//W3C//DTD SVG 1.1//EN" "http://www.w3.org/Graphics/SVG/1.1/DTD/svg11.dtd">
<svg version="1.1" xmlns="http://www.w3.org/2000/svg" xmlns:xlink="http://www.w3.org/1999/xlink" x="0px" y="0px" viewBox="0 0 1000 1000" enable-background="new 0 0 1000 1000" xml:space="preserve">
<metadata> Svg Vector Icons : http://www.sfont.cn </metadata>
<g><g transform="translate(0.000000,512.000000) scale(0.100000,-0.100000)"><path d="M4529.9,5008.4c-1154.7-118.9-2188.5-608-2999.9-1419.4C751.3,2810.3,287.1,1864.7,124.1,723.5C87.7,462.6,93.4-277.8,135.6-552c84.4-556.2,228.3-1018.5,464.2-1496.1c257-517.9,542.8-914.9,951.4-1317.7c402.8-400.9,774.9-663.6,1290.9-918.7c487.2-237.8,884.2-364.4,1432.8-452.7c308.8-49.9,1043.4-59.5,1329.2-19.2c941.8,136.2,1781.9,492.9,2474.3,1053c987.8,797.9,1611.2,1916.1,1797.2,3218.5c32.6,226.3,32.6,982,0,1208.4c-134.3,939.8-479.5,1758.9-1035.8,2455.1c-282,352.9-723.1,761.5-1081.8,1003.1c-623.4,420.1-1298.5,680.9-2067.7,799.8C5448.6,5018,4775.4,5035.3,4529.9,5008.4z M5487,2530.3c38.4-38.4,48-76.7,67.1-274.3c13.4-124.7,30.7-245.5,38.4-266.6c11.5-26.9,67.1-59.5,153.4-94l138.1-53.7l71,53.7c38.4,30.7,134.3,103.6,211,165c92.1,72.9,159.2,111.2,191.8,111.2c72.9,0,694.3-619.5,694.3-694.3c0-44.1-51.8-118.9-310.7-450.7c-28.8-34.5,78.7-293.5,128.5-314.6c21.1-7.7,141.9-24.9,266.6-38.4c337.6-32.6,318.4-1.9,318.4-554.3c0-550.5,17.3-519.8-308.8-554.3c-333.8-34.5-306.9-21.1-368.3-186.1L6722.2-765l53.7-71c30.7-38.4,103.6-134.3,165-211c117-147.7,128.5-184.1,84.4-268.5c-32.6-61.4-540.9-565.8-600.4-596.5c-86.3-44.1-120.8-24.9-517.9,289.6c-34.5,28.8-293.5-76.7-314.6-128.5c-7.7-21.1-24.9-142-38.4-266.6c-32.6-337.6-1.9-318.4-554.3-318.4c-552.4,0-521.7-19.2-554.3,318.4c-13.4,124.7-30.7,245.5-38.4,266.6c-11.5,26.8-67.1,59.4-153.4,94l-138.1,53.7l-71-53.7c-38.4-30.7-134.3-103.6-211-164.9c-143.9-113.2-184.1-128.5-258.9-90.2c-59.5,30.7-567.7,535.1-600.4,596.5c-15.3,28.8-26.9,69-26.9,90.1c0,30.7,103.6,176.5,310.7,437.3c28.8,34.5-78.6,293.5-128.5,314.6c-21.1,7.7-141.9,24.9-266.6,38.4c-337.6,32.6-318.4,1.9-318.4,554.3c0,552.4-19.2,521.7,318.4,554.3c124.7,13.4,245.5,30.7,266.6,38.4c49.9,21.1,157.3,280,128.5,314.6c-328,418.1-333.8,429.7-289.6,517.9c30.7,59.5,535.1,567.7,596.5,600.4c84.4,44.1,120.8,32.6,268.5-84.4c76.7-61.4,172.6-134.3,211-165l71-53.7l138.1,53.7c86.3,34.5,141.9,67.1,153.4,94c7.7,21.1,24.9,141.9,38.4,266.6c32.6,337.6,1.9,318.4,554.3,318.4C5437.1,2574.4,5442.9,2574.4,5487,2530.3z"/><path d="M4750.5,2244.5c-5.8-153.4-59.5-464.2-84.4-492.9c-17.3-17.3-80.6-47.9-140-67.1c-61.4-19.2-184.1-69.1-270.4-111.3c-191.8-92.1-182.2-94-431.6,103.6l-170.7,136.2l-172.6-174.5l-174.5-172.6l136.2-170.7c197.6-249.3,195.6-239.8,103.6-431.6c-42.2-86.3-92.1-207.1-109.3-266.6c-44.1-155.4-67.1-168.8-320.3-201.4c-118.9-13.4-228.2-26.9-239.8-26.9c-19.2,0-24.9-63.3-24.9-249.3c0-186,5.8-249.3,24.9-249.3c151.5-5.8,462.3-59.5,491-84.4c17.3-17.2,47.9-80.6,67.1-140c19.2-61.4,69.1-184.1,111.3-270.4c92.1-191.8,94-182.2-103.6-431.6l-136.2-170.7l174.5-172.6l172.6-174.5l170.7,136.2c249.3,197.6,239.8,195.6,431.6,103.6c88.2-42.2,209.1-92.1,268.5-107.4c151.5-46,168.8-71,199.5-312.6c13.4-113.2,24.9-222.5,26.9-239.8c0-30.7,24.9-34.5,249.3-34.5s249.3,3.8,249.3,34.5c3.8,136.2,57.5,452.7,84.4,481.4c17.3,17.3,80.6,47.9,140,67.1c61.4,19.2,184.1,69.1,272.4,111.3c189.9,92.1,180.3,94,429.6-103.6l170.7-136.2l172.6,174.5l174.5,172.6l-136.2,170.7c-197.6,249.4-195.6,239.8-103.6,431.6c42.2,88.2,92.1,209.1,107.4,268.5c46,153.4,69,166.9,322.2,199.5c118.9,13.4,228.2,26.9,241.7,26.9c17.3,0,23,63.3,23,249.3c0,224.4-3.8,249.3-32.6,249.3c-19.2,1.9-128.5,13.4-241.7,26.9c-241.7,30.7-266.6,48-312.6,199.5c-15.4,59.5-65.2,180.3-107.4,268.5c-92.1,191.8-94,182.2,103.6,431.6l136.2,170.7l-174.5,172.6l-172.6,174.5l-170.7-136.2c-249.3-197.6-239.8-195.6-431.6-103.6c-88.2,42.2-209.1,92.1-268.5,107.4c-151.5,46-168.8,71-199.5,312.6c-13.4,113.2-24.9,222.5-26.8,241.7c0,28.8-24.9,32.6-249.3,32.6C4813.8,2267.5,4750.5,2261.8,4750.5,2244.5z M5258.7,1318.1c214.8-44.1,435.4-166.9,604.2-335.7c400.9-400.9,475.7-1005.1,188-1492.2c-80.6-138.1-283.9-341.4-422-422c-489.1-289.6-1091.4-212.9-1492.2,188c-485.3,485.3-485.3,1241,0,1726.3C4437.8,1283.5,4842.5,1404.4,5258.7,1318.1z"/><path d="M4771.6,1009.3c-485.3-130.4-786.4-634.9-663.7-1110.6c128.5-491,631-796,1112.5-671.3c491,128.5,796,631,671.3,1108.6C5763.2,832.8,5253,1139.7,4771.6,1009.3z"/></g></g>
</svg>