<?xml version="1.0" encoding="utf-8"?>
<!-- Svg Vector Icons : http://www.sfont.cn -->
<!DOCTYPE svg PUBLIC "-//W3C//DTD SVG 1.1//EN" "http://www.w3.org/Graphics/SVG/1.1/DTD/svg11.dtd">
<svg version="1.1" xmlns="http://www.w3.org/2000/svg" xmlns:xlink="http://www.w3.org/1999/xlink" x="0px" y="0px" viewBox="0 0 1000 1000" enable-background="new 0 0 1000 1000" xml:space="preserve">
<metadata> Svg Vector Icons : http://www.sfont.cn </metadata>
<g><g transform="translate(0.000000,512.000000) scale(0.100000,-0.100000)"><path d="M4529.9,5008.4c-1154.7-118.9-2188.5-608-2999.9-1419.4C751.3,2810.3,287.1,1864.7,124.1,723.5C87.7,462.6,93.4-277.8,135.6-552c84.4-556.2,228.3-1018.5,464.2-1496.1c257-517.9,542.8-914.9,951.4-1317.7c402.8-400.9,774.9-663.6,1290.9-918.7c487.2-237.8,884.2-364.4,1432.8-452.7c308.8-49.9,1043.4-59.5,1329.2-19.2c941.8,136.2,1781.9,492.9,2474.3,1053c987.8,797.9,1611.2,1916.1,1797.2,3218.5c32.6,226.3,32.6,982,0,1208.4c-134.3,939.8-479.5,1758.9-1035.8,2455.1c-282,352.9-723.1,761.5-1081.8,1003.1c-623.4,420.1-1298.5,680.9-2067.7,799.8C5448.6,5018,4775.4,5035.3,4529.9,5008.4z M5412.2,2526.5c46-46,47.9-53.7,47.9-349.1v-305l88.2-23c49.9-13.4,155.4-53.7,234-92.1l145.8-67.1l212.9,212.9c174.5,174.5,222.5,211,268.5,211c47.9,0,99.7-44.1,320.3-262.8c222.5-222.5,264.7-274.3,264.7-322.2c0-47.9-36.5-94-214.8-272.4l-214.8-214.8l44.1-78.6c23-42.2,67.1-143.9,97.8-226.3l53.7-147.7l310.7-9.6c410.5-13.4,383.6,19.2,383.6-460.3c0-479.5,26.9-446.9-383.6-460.3l-310.7-9.6l-53.7-143.9c-28.8-78.7-71-182.2-94-228.3l-44.1-84.4l212.9-212.9c174.5-176.5,212.9-224.4,212.9-270.4c0-47.9-44.1-99.7-262.8-320.3c-222.5-222.5-274.3-264.7-322.2-264.7s-94,36.4-272.4,214.8l-214.8,214.8l-78.6-44.1c-42.2-23-143.9-67.1-226.3-97.8l-147.7-53.7l-9.6-310.7c-13.4-410.5,19.2-383.6-460.3-383.6s-446.9-26.9-460.3,383.6l-9.6,310.7l-143.9,53.7c-78.6,28.8-182.2,71-228.2,94l-84.4,44.1l-212.9-212.9c-176.5-174.5-224.4-212.9-270.4-212.9c-47.9,0-99.7,44.1-320.3,262.8c-222.5,222.5-264.7,274.3-264.7,322.2s36.4,94,212.9,270.4l212.9,212.9l-44.1,84.4c-23,46-65.2,149.6-94,228.3L3239-350.6l-310.7,9.6c-410.5,13.4-383.6-19.2-383.6,464.2c0,358.7,0,362.5,48,408.5c46,46,53.7,48,349.1,48h305l23,88.2c13.4,49.9,53.7,155.4,92.1,234l67.1,145.8L3216,1260.5c-174.5,174.5-211,222.5-211,268.5c0,48,44.1,99.7,262.8,320.3c222.5,222.5,274.3,264.7,322.2,264.7c48,0,94-36.4,270.4-212.9l212.9-212.9l141.9,67.1c78.6,38.4,182.2,80.6,234,94l90.2,23v305c0,420.1-26.9,397,460.3,397C5362.3,2574.4,5366.2,2574.4,5412.2,2526.5z"/><path d="M4846.4,2000.9c0-314.6-15.3-349.1-170.7-383.6c-141.9-30.7-339.5-109.3-468-188c-176.5-107.4-193.7-101.7-422,124.7L3590,1749.6l-111.2-111.2l-109.3-109.3l191.8-191.8c228.2-228.2,234-249.4,115.1-445c-69.1-117-153.4-335.7-182.2-479.5c-24.9-120.8-76.7-140-375.9-140h-266.6V119.3V-34.2h266.6c314.6,0,349.1-15.3,383.6-170.7c30.7-141.9,109.3-339.5,188-468c107.4-176.5,101.7-193.7-124.7-422l-195.6-195.6l111.2-111.2l109.3-109.3l191.8,191.8c228.2,228.2,249.4,234,445,115.1c117-69.1,335.7-153.4,479.5-182.2c120.8-24.9,140-76.7,140-375.9v-266.6h153.4h153.4v266.6c0,314.6,15.3,349.1,170.7,383.6c143.8,30.7,345.2,111.3,469.9,188c174.6,107.4,193.7,101.7,420.1-124.7l195.6-195.6l111.2,111.2l109.3,109.3l-191.8,191.8c-222.5,222.5-235.9,260.8-134.3,412.4c67.1,99.7,163,339.5,193.7,479.5c34.5,157.3,67.1,172.6,383.6,172.6H7148v153.4v153.4h-266.6c-314.6,0-349.1,15.3-383.6,170.7c-30.7,141.9-109.3,339.5-188,468c-107.4,176.5-101.7,193.7,124.7,422l195.6,195.6l-111.2,111.2l-109.3,109.3l-191.8-191.8c-222.5-222.5-260.9-235.9-412.4-134.3c-99.7,67.1-339.5,163-479.5,193.7c-157.3,34.5-172.6,67.1-172.6,383.6v266.6h-153.4h-153.4V2000.9z M5258.7,1318.1c214.8-44.1,435.4-166.9,604.2-335.7c400.9-400.9,475.7-1005.1,188-1492.2c-80.6-138.1-283.9-341.4-422-422c-489.1-289.6-1091.4-212.9-1492.2,188c-485.3,485.3-485.3,1241,0,1726.3C4437.8,1283.5,4842.5,1404.4,5258.7,1318.1z"/><path d="M4771.6,1009.3c-485.3-130.4-786.4-634.9-663.7-1110.6c128.5-491,631-796,1112.5-671.3c491,128.5,796,631,671.3,1108.6C5763.2,832.8,5253,1139.7,4771.6,1009.3z"/></g></g>
</svg>