<?xml version="1.0" encoding="utf-8"?>
<!-- Svg Vector Icons : http://www.sfont.cn -->
<!DOCTYPE svg PUBLIC "-//W3C//DTD SVG 1.1//EN" "http://www.w3.org/Graphics/SVG/1.1/DTD/svg11.dtd">
<svg version="1.1" xmlns="http://www.w3.org/2000/svg" xmlns:xlink="http://www.w3.org/1999/xlink" x="0px" y="0px" viewBox="0 0 1000 1000" enable-background="new 0 0 1000 1000" xml:space="preserve">
<metadata> Svg Vector Icons : http://www.sfont.cn </metadata>
<g><g transform="translate(0.000000,512.000000) scale(0.100000,-0.100000)"><path d="M4546.1,5012.8c-1158.2-113.1-2212.9-613.6-3029.8-1440.1C757,2803.8,306.3,1896.8,135.7,794.1c-51.8-339.4-46-1033.6,9.6-1390.2c86.3-544.6,224.4-981.8,466-1465C1088.7-3025.7,1850-3787,2816.5-4266.4c1194.6-594.5,2540.8-678.8,3814.1-241.6c268.5,92,805.4,358.6,1054.7,521.6c406.5,268.5,849.5,671.2,1154.4,1050.8c454.5,567.6,824.6,1353.8,962.6,2046.1C9884.7-483,9900-325.7,9900,123c0,594.5-65.2,1006.7-237.8,1530.2c-243.5,742.1-621.3,1357.7-1177.4,1919.5c-763.2,772.8-1693.2,1242.6-2793.9,1411.3C5453.1,5020.5,4797.3,5035.8,4546.1,5012.8z M3533.6,1896.8c475.6-266.5,968.4-276.1,1298.2-26.8c164.9,122.7,168.7,122.7,385.4-24.9c157.2-109.3,314.5-155.3,531.2-153.4c232,0,372,36.4,650.1,168.8c118.9,57.5,233.9,103.5,253.1,103.5c19.2,0,57.5-19.2,84.4-42.2c42.2-38.3,51.8-69,71-226.3c36.4-299.2,30.7-1156.3-9.6-1417.1c-99.7-630.9-310.6-1148.6-665.4-1631.9c-320.2-433.4-985.6-1054.7-1131.4-1054.7c-69,0-400.8,266.6-692.2,556.1c-613.6,611.7-951.1,1242.6-1093,2042.2c-38.4,214.8-44.1,316.4-44.1,738.3c-1.9,604,28.8,924.3,95.9,991.4C3328.4,1981.1,3391.7,1975.4,3533.6,1896.8z"/><path d="M4875.9,1557.3c-168.7-90.1-341.3-130.4-573.4-130.4c-210.9,0-373.9,30.7-613.6,115.1c-92.1,32.6-174.5,53.7-182.2,47.9c-5.8-7.7-11.5-285.7-11.5-619.4c0-504.3,5.8-638.6,34.5-784.3c101.6-531.1,270.4-920.4,575.3-1328.9c159.2-212.9,466-535,717.2-751.7c207.1-176.4,155.3-186,454.5,78.6C5880.8-1278.7,6247-715,6408.1-78.3c88.2,345.2,111.2,619.4,103.5,1164c-1.9,270.4-11.5,496.7-19.2,504.3c-7.7,7.7-69-9.6-136.1-36.4c-245.4-97.8-439.1-132.3-703.8-120.8c-260.8,9.6-393.1,44.1-556.1,143.8l-86.3,53.7L4875.9,1557.3z M5106.1,535.3c44.1-42.2,47.9-61.4,47.9-230.1V123h182.2c168.7,0,187.9-3.8,230.1-47.9c30.7-28.8,47.9-69,47.9-105.5c0-36.4-17.3-76.7-47.9-105.5c-42.2-44.1-61.4-47.9-230.1-47.9H5154V-366c0-168.7-3.8-187.9-47.9-230.1c-28.8-30.7-69-47.9-105.5-47.9c-36.4,0-76.7,17.3-105.5,47.9c-44.1,42.2-47.9,61.4-47.9,230.1v182.2h-180.2c-151.5,0-186,5.7-230.1,40.3c-38.4,30.7-49.9,55.6-49.9,113.1c0,57.5,11.5,82.5,49.9,113.1c44.1,34.5,78.6,40.2,230.1,40.2h180.2v182.2c0,168.7,3.8,187.9,47.9,230.1c28.8,30.7,69,47.9,105.5,47.9C5037,583.2,5077.3,566,5106.1,535.3z"/></g></g>
</svg>