<?xml version="1.0" encoding="utf-8"?>
<!-- Svg Vector Icons : http://www.sfont.cn -->
<!DOCTYPE svg PUBLIC "-//W3C//DTD SVG 1.1//EN" "http://www.w3.org/Graphics/SVG/1.1/DTD/svg11.dtd">
<svg version="1.1" xmlns="http://www.w3.org/2000/svg" xmlns:xlink="http://www.w3.org/1999/xlink" x="0px" y="0px" viewBox="0 0 1000 1000" enable-background="new 0 0 1000 1000" xml:space="preserve">
<metadata> Svg Vector Icons : http://www.sfont.cn </metadata>
<g><g transform="translate(0.000000,512.000000) scale(0.100000,-0.100000)"><path d="M4546.1,5012.8c-1158.2-113.1-2212.9-613.6-3029.8-1440.1C757,2803.8,306.3,1896.8,135.7,794.1c-51.8-339.4-46-1033.6,9.6-1390.2c86.3-544.6,224.4-981.8,466-1465C1088.7-3025.7,1850-3787,2816.5-4266.4c1194.6-594.5,2540.8-678.8,3814.1-241.6c268.5,92,805.4,358.6,1054.7,521.6c406.5,268.5,849.5,671.2,1154.4,1050.8c454.5,567.6,824.6,1353.8,962.6,2046.1C9884.7-483,9900-325.7,9900,123c0,594.5-65.2,1006.7-237.8,1530.2c-243.5,742.1-621.3,1357.7-1177.4,1919.5c-763.2,772.8-1693.2,1242.6-2793.9,1411.3C5453.1,5020.5,4797.3,5035.8,4546.1,5012.8z M3549,1889.1c475.6-260.8,955-264.6,1290.5-11.5c65.2,49.9,134.2,86.3,163,86.3c28.8,0,88.2-28.8,140-69c354.7-270.4,782.4-276.1,1298.2-15.3c94,46,186,84.4,207.1,84.4c21.1,0,61.3-19.2,90.1-44.1c49.9-44.1,53.7-57.5,78.6-350.9c34.5-372,23-1018.2-23-1311.6c-145.7-931.9-579.1-1679.8-1371.1-2366.3c-266.5-232-360.5-299.2-418-299.2c-61.4,0-205.2,107.4-512,383.5C3769.5-1376.6,3368.7-682.4,3215.3,190.1c-38.4,214.8-44.1,316.4-44.1,738.3c-1.9,604,28.8,924.3,95.9,991.4C3328.4,1981.1,3389.8,1975.4,3549,1889.1z"/><path d="M4875.9,1557.3c-168.7-90.1-341.3-130.4-573.4-130.4c-212.9,0-379.7,30.7-611.7,117c-94,32.6-174.5,53.7-182.2,46c-7.7-7.7-13.4-285.7-13.4-619.4c0-504.3,5.8-638.6,34.5-784.3c130.4-684.6,389.3-1171.6,901.3-1704.7c126.6-132.3,306.8-303,400.8-383.5l170.7-141.9l51.8,38.3c157.3,122.7,466,414.2,609.8,577.2c494.7,559.9,730.6,1070,824.5,1781.4c23,182.2,28.8,356.7,23,732.5c-1.9,270.4-11.5,496.7-19.2,504.3c-7.7,7.7-80.5-13.4-163-44.1c-239.7-92.1-435.3-124.6-694.2-113.1c-241.6,9.6-381.6,47.9-538.8,143.8l-86.3,53.7L4875.9,1557.3z M4603.6,389.5c23-11.5,122.7-99.7,218.6-195.6l178.3-174.5l187.9,184.1c103.6,101.6,209,189.8,237.8,197.5c57.5,15.3,157.2-30.7,176.4-76.7c34.5-90.1,11.5-130.4-184.1-327.9L5223-203l195.6-199.4c164.9-166.8,195.6-207.1,195.6-258.9c0-82.5-72.9-155.3-155.3-155.3c-51.8,0-92,30.7-258.9,195.6l-199.4,195.6L4801.2-621c-166.8-164.9-207.1-195.6-258.9-195.6c-82.5,0-155.3,72.9-155.3,155.3c0,51.8,30.7,92,195.6,258.9L4778.1-203L4582.6-3.6c-159.2,161.1-195.6,209-195.6,255c0,61.4,26.8,105.5,86.3,136.1C4523.1,416.4,4551.9,416.4,4603.6,389.5z"/></g></g>
</svg>