<?xml version="1.0" encoding="utf-8"?>
<!-- Svg Vector Icons : http://www.sfont.cn -->
<!DOCTYPE svg PUBLIC "-//W3C//DTD SVG 1.1//EN" "http://www.w3.org/Graphics/SVG/1.1/DTD/svg11.dtd">
<svg version="1.1" xmlns="http://www.w3.org/2000/svg" xmlns:xlink="http://www.w3.org/1999/xlink" x="0px" y="0px" viewBox="0 0 1000 1000" enable-background="new 0 0 1000 1000" xml:space="preserve">
<metadata> Svg Vector Icons : http://www.sfont.cn </metadata>
<g><g transform="translate(0.000000,512.000000) scale(0.100000,-0.100000)"><path d="M4529.9,5008.4c-1154.7-118.9-2188.5-608-2999.9-1419.4C751.3,2810.3,287.1,1864.7,124.1,723.5C87.7,462.6,93.4-277.8,135.6-552c84.4-556.2,228.3-1018.5,464.2-1496.1c257-517.9,542.8-914.9,951.4-1317.7c402.8-400.9,774.9-663.6,1290.9-918.7c487.2-237.8,884.2-364.4,1432.8-452.7c308.8-49.9,1043.4-59.5,1329.2-19.2c941.8,136.2,1781.9,492.9,2474.3,1053c987.8,797.9,1611.2,1916.1,1797.2,3218.5c32.6,226.3,32.6,982,0,1208.4c-134.3,939.8-479.5,1758.9-1035.8,2455.1c-282,352.9-723.1,761.5-1081.8,1003.1c-623.4,420.1-1298.5,680.9-2067.7,799.8C5448.6,5018,4775.4,5035.3,4529.9,5008.4z M5958.8,2503.4c40.3-40.3,324.2-339.5,631.1-663.6L7148,1249V-496.4v-1745.4l-48-46l-46-47.9H5159c-2004.4,1.9-1929.6-1.9-1977.5,90.1c-32.6,59.5-32.6,4670.5,0,4729.9c48,92.1,7.7,88.2,1392.5,90.2h1310L5958.8,2503.4z"/><path d="M3465.4,119.3v-2148.2h1687.9h1687.9v1578.6v1576.6l-539,571.6l-539,569.7H4614.3H3465.4V119.3z M6486.3,378.2l47.9-46v-980.1v-980.1l-47.9-46l-46-47.9H5159c-1354.1,1.9-1315.8-1.9-1363.7,90.1c-32.6,59.5-32.6,1908.5,0,1967.9c47.9,92.1,9.6,88.2,1363.7,90.2h1281.3L6486.3,378.2z"/><path d="M4079.1-647.9v-767.2h153.4H4386v306.9v306.9h776.8h776.8v-306.9v-306.9h143.9h143.9v767.2v767.2h-143.9h-143.9v-306.9v-306.9h-776.8H4386v306.9v306.9h-153.4h-153.4V-647.9z"/><path d="M4692.9-34.2v-153.4h153.4h153.4v153.4v153.4h-153.4h-153.4V-34.2z"/><path d="M5306.7-34.2v-153.4h163h163v153.4v153.4h-163h-163V-34.2z"/><path d="M4692.9-1261.7v-153.4h153.4h153.4v153.4v153.4h-153.4h-153.4V-1261.7z"/><path d="M5306.7-1261.7v-153.4h163h163v153.4v153.4h-163h-163V-1261.7z"/></g></g>
</svg>