<?xml version="1.0" encoding="utf-8"?>
<!-- Svg Vector Icons : http://www.sfont.cn -->
<!DOCTYPE svg PUBLIC "-//W3C//DTD SVG 1.1//EN" "http://www.w3.org/Graphics/SVG/1.1/DTD/svg11.dtd">
<svg version="1.1" xmlns="http://www.w3.org/2000/svg" xmlns:xlink="http://www.w3.org/1999/xlink" x="0px" y="0px" viewBox="0 0 1000 1000" enable-background="new 0 0 1000 1000" xml:space="preserve">
<metadata> Svg Vector Icons : http://www.sfont.cn </metadata>
<g><g transform="translate(0.000000,512.000000) scale(0.100000,-0.100000)"><path d="M4529.9,5008.4c-1154.7-118.9-2188.5-608-2999.9-1419.4C751.3,2810.3,287.1,1864.7,124.1,723.5C87.7,462.6,93.4-277.8,135.6-552c84.4-556.2,228.3-1018.5,464.2-1496.1c257-517.9,542.8-914.9,951.4-1317.7c402.8-400.9,774.9-663.6,1290.9-918.7c487.2-237.8,884.2-364.4,1432.8-452.7c308.8-49.9,1043.4-59.5,1329.2-19.2c941.8,136.2,1781.9,492.9,2474.3,1053c987.8,797.9,1611.2,1916.1,1797.2,3218.5c32.6,226.3,32.6,982,0,1208.4c-134.3,939.8-479.5,1758.9-1035.8,2455.1c-282,352.9-723.1,761.5-1081.8,1003.1c-623.4,420.1-1298.5,680.9-2067.7,799.8C5448.6,5018,4775.4,5035.3,4529.9,5008.4z M5220.4,2238.7c491-128.5,796-631,671.3-1112.5c-92.1-352.9-387.5-625.3-748-686.7c-454.6-78.6-914.9,230.2-1035.7,690.5C3937.2,1784.2,4564.4,2409.4,5220.4,2238.7z M5302.9,100.1c253.2-32.6,516-109.3,742.3-218.7c636.8-306.9,1039.6-844,1095.2-1461.6l13.4-141.9h-153.4h-153.4l-13.4,126.6C6754.8-834,6027.9-239.4,5114.9-193.3c-1003.1,51.8-1862.4-567.8-1948.7-1404l-13.4-124.7h-153.4h-153.4l13.4,141.9c55.6,617.6,458.4,1154.7,1095.2,1461.6C4364.9,79,4844.5,157.6,5302.9,100.1z"/><path d="M4773.5,1964.5c-452.7-161.1-573.5-773-218.7-1099.1c136.2-126.6,232.1-161.1,445-161.1c161.1,0,195.6,5.7,289.6,53.7c126.6,61.4,253.2,189.9,310.7,316.5c34.5,72.9,42.2,126.6,42.2,272.4c0,161.1-5.8,195.6-53.7,289.6c-61.4,128.5-191.8,253.2-316.5,310.7C5143.7,2002.8,4907.8,2012.4,4773.5,1964.5z"/></g></g>
</svg>