<?xml version="1.0" encoding="utf-8"?>
<!-- Svg Vector Icons : http://www.sfont.cn -->
<!DOCTYPE svg PUBLIC "-//W3C//DTD SVG 1.1//EN" "http://www.w3.org/Graphics/SVG/1.1/DTD/svg11.dtd">
<svg version="1.1" xmlns="http://www.w3.org/2000/svg" xmlns:xlink="http://www.w3.org/1999/xlink" x="0px" y="0px" viewBox="0 0 1000 1000" enable-background="new 0 0 1000 1000" xml:space="preserve">
<metadata> Svg Vector Icons : http://www.sfont.cn </metadata>
<g><g transform="translate(0.000000,512.000000) scale(0.100000,-0.100000)"><path d="M4529.9,5008.4c-1154.7-118.9-2188.5-608-2999.9-1419.4C751.3,2810.3,287.1,1864.7,124.1,723.5C87.7,462.6,93.4-277.8,135.6-552c84.4-556.2,228.3-1018.5,464.2-1496.1c257-517.9,542.8-914.9,951.4-1317.7c402.8-400.9,774.9-663.6,1290.9-918.7c487.2-237.8,884.2-364.4,1432.8-452.7c308.8-49.9,1043.4-59.5,1329.2-19.2c941.8,136.2,1781.9,492.9,2474.3,1053c987.8,797.9,1611.2,1916.1,1797.2,3218.5c32.6,226.3,32.6,982,0,1208.4c-134.3,939.8-479.5,1758.9-1035.8,2455.1c-282,352.9-723.1,761.5-1081.8,1003.1c-623.4,420.1-1298.5,680.9-2067.7,799.8C5448.6,5018,4775.4,5035.3,4529.9,5008.4z M7130.8,2192.7c44.1-34.5,46-51.8,51.8-287.7l7.7-251.3h237.8c228.3,0,241.7-1.9,285.8-47.9c59.5-57.5,61.4-136.2,5.7-195.6c-38.4-42.2-55.6-44.1-285.8-44.1h-243.6l-7.7-249.4c-5.8-226.3-9.6-253.2-48-289.6c-51.8-51.8-143.8-55.6-197.6-7.7c-34.5,30.7-38.4,59.5-38.4,291.5V1366h-247.4c-291.5,0-335.7,19.2-335.7,143.9s44.1,143.9,335.7,143.9h247.4v249.4c0,224.4,3.8,253.2,38.4,287.7C6985,2238.7,7073.2,2240.7,7130.8,2192.7z M5078.4,1626.9c692.4-147.7,1020.4-957.1,627.2-1546c-351-527.5-1097.1-600.3-1545.9-149.6c-199.5,199.5-291.5,423.9-291.5,713.5c1.9,466.1,301.1,851.6,751.9,970.5C4788.8,1659.5,4909.7,1661.4,5078.4,1626.9z M5441-730.4c719.3-189.9,1242.9-673.3,1400.2-1288.9c19.2-76.7,38.4-189.9,40.3-251.3l5.8-113.2h-143.9h-141.9l-13.4,128.5c-42.2,439.2-362.5,867-820.9,1099.1c-481.4,243.6-1124,270.4-1647.6,67.1c-343.3-132.4-673.2-416.2-824.8-709.7c-84.4-161.1-155.4-399-155.4-521.7v-72.9h-143.9h-143.9v76.7c0,44.1,13.4,145.8,30.7,226.3C3005-1490,3484.5-993.2,4152-772.6c268.5,88.2,402.8,105.5,771.1,97.8C5207-680.5,5287.5-688.2,5441-730.4z"/><path d="M4702.5,1341.1c-218.7-57.5-383.6-191.8-481.4-389.4c-49.9-103.6-55.6-130.4-55.6-314.6s3.8-211,55.6-312.6c67.1-132.4,226.3-287.7,351-343.3c140-63.3,402.8-71,548.6-15.3c176.5,67.1,297.3,176.5,387.5,352.9c72.9,141.9,76.7,159.2,74.8,316.5c-1.9,230.2-53.7,356.8-207.1,512.1c-86.3,86.3-147.7,128.5-230.2,159.2C5003.7,1360.3,4827.2,1373.7,4702.5,1341.1z"/></g></g>
</svg>