<?xml version="1.0" encoding="utf-8"?>
<!-- Svg Vector Icons : http://www.sfont.cn -->
<!DOCTYPE svg PUBLIC "-//W3C//DTD SVG 1.1//EN" "http://www.w3.org/Graphics/SVG/1.1/DTD/svg11.dtd">
<svg version="1.1" xmlns="http://www.w3.org/2000/svg" xmlns:xlink="http://www.w3.org/1999/xlink" x="0px" y="0px" viewBox="0 0 1000 1000" enable-background="new 0 0 1000 1000" xml:space="preserve">
<metadata> Svg Vector Icons : http://www.sfont.cn </metadata>
<g><g transform="translate(0.000000,512.000000) scale(0.100000,-0.100000)"><path d="M4529.9,5008.4c-1154.7-118.9-2188.5-608-2999.9-1419.4C751.3,2810.3,287.1,1864.7,124.1,723.5C87.7,462.6,93.4-277.8,135.6-552c84.4-556.2,228.3-1018.5,464.2-1496.1c257-517.9,542.8-914.9,951.4-1317.7c402.8-400.9,774.9-663.6,1290.9-918.7c487.2-237.8,884.2-364.4,1432.8-452.7c308.8-49.9,1043.4-59.5,1329.2-19.2c941.8,136.2,1781.9,492.9,2474.3,1053c987.8,797.9,1611.2,1916.1,1797.2,3218.5c32.6,226.3,32.6,982,0,1208.4c-134.3,939.8-479.5,1758.9-1035.8,2455.1c-282,352.9-723.1,761.5-1081.8,1003.1c-623.4,420.1-1298.5,680.9-2067.7,799.8C5448.6,5018,4775.4,5035.3,4529.9,5008.4z M5239.6,1912.7l47.9-46V119.3v-1747.4l-47.9-46c-94-94-99.7-90.2-907.2,517.9l-750,565.8h-326.1h-326.1l-38.4,49.9c-38.4,49.9-40.3,72.9-40.3,659.8s1.9,609.9,40.3,659.8l38.4,49.9h326.1h326.1l750,565.8C5139.8,2004.7,5145.6,2008.6,5239.6,1912.7z M6108.4,612.2l272.4-272.4L6657,616.1c241.7,241.7,285.8,276.2,339.5,276.2c44.1,0,74.8-15.3,107.4-51.8c84.4-97.8,67.1-128.5-224.4-423.9C6731.8,268.9,6611,138.5,6611,128.9s120.8-140,268.5-287.7c289.6-291.6,305-322.2,228.3-420.1c-28.8-38.4-55.6-49.9-109.3-49.9c-65.2,0-92.1,21.1-343.3,272.4L6380.8-82.1l-274.3-274.3c-251.3-251.3-278.1-272.4-343.3-272.4c-53.7,0-80.6,11.5-109.3,49.9c-76.7,97.8-61.4,128.5,228.3,420.1c147.7,147.7,268.5,278.1,268.5,287.7s-120.8,140-268.5,287.7c-282,285.8-301.1,318.4-237.9,408.5c36.5,53.7,99.7,80.6,151.5,67.1C5816.9,886.5,5956.9,759.9,6108.4,612.2z"/><path d="M4405.2,1066.8c-794.1-604.2-684.8-544.7-991.6-544.7h-255.1V119.3v-402.8h251.3c151.5,0,266.6-9.6,291.5-23c23-11.5,320.3-232.1,661.7-489.1l617.6-468V119.3c0,759.6-1.9,1381-3.8,1379.1C4973,1498.4,4715.9,1302.7,4405.2,1066.8z"/></g></g>
</svg>