<?xml version="1.0" encoding="utf-8"?>
<!-- Svg Vector Icons : http://www.sfont.cn -->
<!DOCTYPE svg PUBLIC "-//W3C//DTD SVG 1.1//EN" "http://www.w3.org/Graphics/SVG/1.1/DTD/svg11.dtd">
<svg version="1.1" xmlns="http://www.w3.org/2000/svg" xmlns:xlink="http://www.w3.org/1999/xlink" x="0px" y="0px" viewBox="0 0 1000 1000" enable-background="new 0 0 1000 1000" xml:space="preserve">
<metadata> Svg Vector Icons : http://www.sfont.cn </metadata>
<g><g transform="translate(0.000000,512.000000) scale(0.100000,-0.100000)"><path d="M4529.9,5008.4c-1154.7-118.9-2188.5-608-2999.9-1419.4C751.3,2810.3,287.1,1864.7,124.1,723.5C87.7,462.6,93.4-277.8,135.6-552c84.4-556.2,228.3-1018.5,464.2-1496.1c257-517.9,542.8-914.9,951.4-1317.7c402.8-400.9,774.9-663.6,1290.9-918.7c487.2-237.8,884.2-364.4,1432.8-452.7c308.8-49.9,1043.4-59.5,1329.2-19.2c941.8,136.2,1781.9,492.9,2474.3,1053c987.8,797.9,1611.2,1916.1,1797.2,3218.5c32.6,226.3,32.6,982,0,1208.4c-134.3,939.8-479.5,1758.9-1035.8,2455.1c-282,352.9-723.1,761.5-1081.8,1003.1c-623.4,420.1-1298.5,680.9-2067.7,799.8C5448.6,5018,4775.4,5035.3,4529.9,5008.4z M5216.5,1958.7c26.9-11.5,57.5-42.2,69-69.1c15.4-32.6,21.1-550.5,21.1-1781.9V-1630l-55.6-55.6c-61.4-59.5-103.6-67.1-166.9-30.7c-23,13.4-364.4,266.6-757.6,563.9l-717.4,540.9l-331.8,5.8l-333.8,5.7l-46,53.7l-46,53.7v611.9v611.9l46,53.7l46,53.7l333.8,5.8l331.8,5.8l717.4,540.9c395.1,297.3,736.5,550.5,757.6,563.9C5134.1,1983.6,5159,1985.6,5216.5,1958.7z M6488.2,1339.2C7015.7,946,7253.5,326.4,7100.1-254.7c-92.1-349.1-339.5-694.3-652.1-903.4c-153.4-105.5-297.3-71-297.3,67.1c0,88.2,17.3,115.1,132.4,191.8c220.6,151.5,410.5,395.1,492.9,634.9c168.8,481.4-13.4,1016.6-454.6,1344.6c-149.6,111.2-180.3,161.1-149.6,243.6C6219.7,1452.3,6331,1458.1,6488.2,1339.2z M5974.2,963.2c331.8-166.9,560.1-525.5,560.1-882.3c-1.9-366.3-224.4-723.1-556.2-888c-172.6-88.2-266.6-94-324.2-21.1c-82.5,105.5-38.4,193.7,141.9,274.3c408.5,186.1,552.4,652.1,312.6,1010.8C6031.7,570,5884,683.2,5763.2,725.4C5613.6,775.3,5565.6,898,5661.5,992C5726.7,1059.1,5793.9,1053.4,5974.2,963.2z"/><path d="M4340,1018.9l-631-477.6h-274.3h-276.2v-422v-422h276.2h276.2l634.9-479.5c351-262.8,640.6-479.5,644.5-479.5c5.8,0,9.6,621.4,9.6,1381s-5.7,1381-13.4,1379.1C4976.8,1496.4,4687.2,1281.6,4340,1018.9z"/></g></g>
</svg>