<?xml version="1.0" encoding="utf-8"?>
<!-- Svg Vector Icons : http://www.sfont.cn -->
<!DOCTYPE svg PUBLIC "-//W3C//DTD SVG 1.1//EN" "http://www.w3.org/Graphics/SVG/1.1/DTD/svg11.dtd">
<svg version="1.1" xmlns="http://www.w3.org/2000/svg" xmlns:xlink="http://www.w3.org/1999/xlink" x="0px" y="0px" viewBox="0 0 1000 1000" enable-background="new 0 0 1000 1000" xml:space="preserve">
<metadata> Svg Vector Icons : http://www.sfont.cn </metadata>
<g><g transform="translate(0.000000,512.000000) scale(0.100000,-0.100000)"><path d="M4529.9,5008.4c-1154.7-118.9-2188.5-608-2999.9-1419.4C751.3,2810.3,287.1,1864.7,124.1,723.5C87.7,462.6,93.4-277.8,135.6-552c84.4-556.2,228.3-1018.5,464.2-1496.1c257-517.9,542.8-914.9,951.4-1317.7c402.8-400.9,774.9-663.6,1290.9-918.7c487.2-237.8,884.2-364.4,1432.8-452.7c308.8-49.9,1043.4-59.5,1329.2-19.2c941.8,136.2,1781.9,492.9,2474.3,1053c987.8,797.9,1611.2,1916.1,1797.2,3218.5c32.6,226.3,32.6,982,0,1208.4c-134.3,939.8-479.5,1758.9-1035.8,2455.1c-282,352.9-723.1,761.5-1081.8,1003.1c-623.4,420.1-1298.5,680.9-2067.7,799.8C5448.6,5018,4775.4,5035.3,4529.9,5008.4z M4000.5,2831.4c1826-268.5,3331.7-1563.2,3863-3325.9c115.1-375.9,178.4-746.1,197.6-1154.7l13.4-262.8l-59.5-57.5c-74.8-74.8-141.9-76.7-212.9-5.8c-49.9,49.9-53.7,63.3-67.1,301.1C7675.5-542.4,7242,447.3,6461.4,1237.5c-790.2,801.8-1806.8,1252.5-2953.8,1310c-209.1,11.5-258.9,19.2-291.6,49.9c-78.6,72.9-65.2,214.8,24.9,262.8C3296.6,2889,3726.2,2871.7,4000.5,2831.4z M3896.9,1605.8c748-128.5,1373.3-452.7,1908.5-987.8c631-631,978.2-1407.9,1028.1-2299.8l13.4-230.2l-59.5-57.5c-32.6-32.6-76.7-59.5-99.7-59.5c-57.5,0-145.8,49.9-163,90.2c-7.7,19.2-21.1,149.6-30.7,289.6c-51.8,782.6-370.2,1482.7-920.7,2035.1c-552.4,552.4-1252.5,868.9-2042.7,920.7c-140,9.6-270.4,26.9-293.5,38.4c-95.9,51.8-105.5,170.7-19.2,255.1l57.5,59.5l224.4-11.5C3622.7,1640.3,3802.9,1621.1,3896.9,1605.8z M3791.4,378.2C4804.2,165.3,5540.7-682.5,5605.9-1712.5c11.5-184.2,11.5-195.6-32.6-245.5c-28.8-32.6-72.9-57.5-117-65.2c-61.4-9.6-78.6-1.9-126.6,46c-49.9,49.9-57.5,72.9-71,226.3c-24.9,324.1-88.2,542.8-228.3,807.5C4710.2-343,4142.4,17.6,3430.8,71.3c-165,13.4-180.3,19.2-224.4,71c-67.1,78.6-63.3,157.3,11.5,230.2l57.5,59.5l189.9-13.4C3568.9,412.7,3716.6,393.6,3791.4,378.2z M4058-878.1c132.3-71,189.9-130.4,266.6-276.2c44.1-84.4,51.8-120.8,51.8-260.8c0-149.6-5.8-172.6-65.2-283.9c-72.9-134.3-132.3-191.8-278.1-268.5c-84.4-44.1-120.8-51.8-260.9-51.8c-151.5,0-172.6,5.8-287.7,69c-264.7,145.8-387.5,446.9-295.4,721.2C3315.8-860.8,3716.6-697.8,4058-878.1z"/><path d="M3603.5-1091c-239.8-120.8-260.9-479.5-38.4-625.3c107.4-72.9,253.2-82.5,370.2-24.9c245.5,118.9,270.4,477.6,44.1,629.1C3872-1043.1,3716.6-1033.5,3603.5-1091z"/></g></g>
</svg>